<svg aria-hidden="true" width="499" height="499" fill="none" xmlns="http://www.w3.org/2000/svg"><path d="M148.4 181.3s24.3-12.6 20.4-17.7c3.8-.5 6.1-.7 6.3 1.7.2 2.4-.7 7.6-3.3 9.8-2.6 2.2-12.2 6.6-23.4 6.2ZM342.7 158.1s-3.9 11.7 3.1 12.8c7 1.1 19.5 5 26.1 4.3-4.7 2-13.7 5.2-36-2.2-.8-3-1.4-11.9 6.8-14.9Z" fill="#fff"/><path d="m119 279 5.6 2.3s-5.8 26.8 2.3 30.3c0 0-9-1-9.8-5.4-.7-4.3-1.6-13.1 1.9-27.2Z" fill="#434FE3"/><path d="M142 227.3c-38.5 11.6-53.9 29.8-58.5 57-2.5 14.8.3 31.8 8.2 42.9 8.3 11.6 28.3 19.7 62.4 19 .7-2.9-1.8-8.4 1.2-8.7-80.7 8.5-83.4-82.5-8.1-104.2-2.2-1.1-4.8-3-4.1-5.4-.9.1-1.1-.6-1.1-.6Z" fill="#434FE3"/><path d="M145.2 347.1c-15.7 0-37.7-3.4-51.3-16.1-9.9-9.3-14.3-30.3-10.5-50 2.6-13.2 11.1-37.1 39.1-47.8 6.2-2.4 11.9-4.3 16.1-5.6l4.5-1.5c.5-.2 1.1.1 1.3.6.2.5-.1 1.1-.6 1.3-1.2.4-2.8.9-4.6 1.5-4.1 1.4-9.8 3.2-16 5.6-27.1 10.4-35.4 33.5-37.9 46.3-3.7 19.1.4 39.3 9.9 48.2 15.8 14.7 43.6 16.5 58.3 15.2l.9-31.5c-5.6.3-30.3 1.1-36.4-4-3-2.5-3.9-8.3-2.8-17.3.8-6.5 2.4-12.4 2.4-12.5.1-.5.7-.8 1.2-.7.5.1.8.7.7 1.2-1.7 6.3-5.1 23.6-.2 27.7 5.1 4.3 27.7 3.9 36 3.5.3 0 .6.1.8.3.2.2.3.5.3.7l-.9 33.5c0 .5-.4.9-.9 1-2.6.3-5.8.4-9.4.4Z" fill="#000"/><path d="m455.3 210.7-1.2-1.6c-4.9 3.6-10 6.9-15.2 10-5.3 3-10.7 5.8-16.2 8.2l.8 1.9c5.6-2.5 11.1-5.3 16.4-8.3 5.3-3.2 10.5-6.6 15.4-10.2Z" fill="#4BC3C3"/><path d="m423.5 229.1-.8-1.9c-1.3.6-2.6 1.1-4 1.7-1.3.5-2.6 1.1-4 1.6l.7 1.9c1.4-.5 2.7-1.1 4-1.6 1.4-.5 2.8-1 4.1-1.7Z" fill="#41A57D"/><path d="m415.5 232.4-.7-1.9c-7.9 3.1-16.1 5.5-24.4 7.2l.4 2c8.4-1.7 16.7-4.2 24.7-7.3Z" fill="#96CD32"/><path d="m295.1 227.4.9-1.8-3.9-2-1.9-1.1-1.9-1.1-3.8-2.3-3.6-2.4-1.2 1.7 3.7 2.5 3.9 2.3 1.9 1.1 1.9 1.1 4 2Z" fill="#41A57D"/><path d="m317 236.2.6-1.901c-2.7-.9-5.4-1.699-8.1-2.799l-.7 1.9c2.6 1 5.4 1.9 8.2 2.8Z" fill="#fff"/><path d="m308.7 233.4.7-1.9c-4.6-1.7-9.1-3.7-13.5-5.8l-.9 1.8c4.5 2.1 9.1 4.2 13.7 5.9Z" fill="#FFC328"/><path d="m340.2 241.4.3-2c-7.8-1.2-15.4-2.8-22.9-5.1l-.6 1.9c7.6 2.3 15.3 4 23.2 5.2Z" fill="#2382D2"/><path d="m279.7 218.4 1.1-1.7c-4.4-3-8.6-6.3-12.6-9.8-3.9-3.5-7.6-7.4-11-11.5l-1.6 1.3c3.4 4.2 7.2 8.1 11.2 11.7 4.2 3.6 8.5 7 12.9 10Z" fill="#4BC3C3"/><path d="m255.8 196.8 1.6-1.3c-3.8-4.7-7.1-9.9-9.6-15.4l-1.9.8c2.5 5.7 5.9 11 9.9 15.9Z" fill="#fff"/><path d="m245.9 180.9 1.9-.8c-2-4.4-3.5-9.1-4.2-13.9l-2 .3c.7 5 2.2 9.8 4.3 14.4Z" fill="#96CD32"/><path d="m390.8 239.8-.4-2c-8.2 1.7-16.5 2.8-24.9 3.1l-6.3.1-6.3-.3c-4.2-.2-8.3-.7-12.5-1.3l-.3 2c4.2.6 8.4 1.1 12.6 1.3l6.4.3 6.4-.1c8.5-.3 17-1.4 25.3-3.1Z" fill="#1423DC"/><path d="m241.5 166.5 2-.3c-.5-3-.6-6-.4-8.9.2-3 .7-5.9 1.6-8.8 1.8-5.6 5-10.9 9.7-14.4l-1.2-1.6c-5.1 3.9-8.5 9.5-10.4 15.5-.9 3-1.4 6.1-1.7 9.2-.2 3-.1 6.2.4 9.3Z" fill="#4BC3C3"/><path d="m253.2 132.4 1.2 1.6c2.2-1.7 4.7-2.9 7.3-3.7l-.6-2c-2.8.9-5.5 2.3-7.9 4.1Z" fill="#41A57D"/><path d="m261.2 128.4.6 2c1.9-.6 4-.8 6-.9l1.5.1h.8l.8.1c.5.1 1 .1 1.5.3.5.1 1 .2 1.5.4 3.9 1.2 7.2 3.9 9.3 7.3l1.7-1.1c-2.4-3.8-6.1-6.8-10.4-8.2-4.4-1.3-9.1-1.3-13.3 0Z" fill="#96CD32"/><path d="m248.5 219.3-.9-1.8c-5.2 2.6-10.7 4.6-16.4 5.9l.5 2c5.7-1.4 11.4-3.4 16.8-6.1Z" fill="#41A57D"/><path d="m267.6 205.4-1.4-1.4c-2 2-4.1 3.9-6.3 5.7l1.3 1.6c2.2-1.9 4.3-3.8 6.4-5.9Z" fill="#fff"/><path d="m261.1 211.2-1.3-1.6c-3.8 3-7.9 5.7-12.3 7.9l.9 1.8c4.5-2.2 8.8-4.9 12.7-8.1Z" fill="#FFC328"/><path d="m281.6 186-1.8-.9c-3.5 6.9-8.1 13.3-13.6 18.9l1.4 1.4c5.6-5.7 10.4-12.2 14-19.4Z" fill="#2382D2"/><path d="m231.6 225.4-.5-2c-5.1 1.2-10.4 1.8-15.7 2-5.3.2-10.6 0-15.9-.5l-.2 2c5.4.5 10.8.8 16.2.6 5.4-.3 10.8-.9 16.1-2.1Z" fill="#4BC3C3"/><path d="m199.4 226.8.2-2c-6.1-.6-12.1-1.6-18.2-2.8l-.4 2c6.1 1.2 12.2 2.2 18.4 2.8Z" fill="#fff"/><path d="m181 224 .4-2c-4.8-1-9.6-2.1-14.4-3.3l-.5 2c4.8 1.2 9.6 2.3 14.5 3.3Z" fill="#96CD32"/><path d="m284.8 136.6-1.7 1.1c2.2 3.4 3.4 7.4 4 11.4.6 4.1.5 8.2.1 12.3-1 8.2-3.6 16.3-7.4 23.6l1.8.9c3.9-7.6 6.6-15.8 7.6-24.3.5-4.3.5-8.6-.1-12.9-.6-4.1-1.9-8.4-4.3-12.1Z" fill="#fff"/><path d="m166.5 220.7.5-2c-5.9-1.4-11.9-2.9-17.9-4.2-6-1.3-12-2.5-18.1-3.3l-.2 2c6 .7 12 1.9 17.9 3.2 5.9 1.4 11.8 2.9 17.8 4.3Z" fill="#4BC3C3"/><path d="m130.7 213.3.2-2c-1.4-.2-2.9-.3-4.4-.4-1.5 0-2.9-.1-4.4 0l.1 2c1.4-.1 2.8 0 4.2 0 1.5.1 2.9.2 4.3.4Z" fill="#41A57D"/><path d="m122.3 212.9-.1-2c-8.6.2-17.4 1.5-25.3 5.1l.8 1.8c7.6-3.5 16.1-4.7 24.6-4.9Z" fill="#96CD32"/><path d="m86.9 299.8-1.5 1.4c2.1 2.2 4.2 4.3 6.6 6.1 2.4 1.9 4.9 3.5 7.6 4.9l.9-1.8c-2.6-1.3-5-2.9-7.3-4.7-2.2-1.8-4.3-3.8-6.3-5.9Z" fill="#41A57D"/><path d="m75.3 280.1-1.9.7c.4 1.4 1 2.7 1.6 4.1.6 1.3 1.2 2.7 1.9 4l1.8-.9c-.7-1.2-1.2-2.5-1.8-3.8-.6-1.5-1.2-2.8-1.6-4.1Z" fill="#fff"/><path d="m78.6 287.9-1.8.9c2.3 4.4 5.2 8.6 8.6 12.3l1.5-1.4c-3.3-3.5-6-7.5-8.3-11.8Z" fill="#FFC328"/><path d="m72.1 257.2-2-.1c-.5 8 .7 16.1 3.3 23.7l1.9-.7c-2.6-7.3-3.7-15.2-3.2-22.9ZM100.6 310.3l-.9 1.8c9.7 5.1 21 6.9 31.8 5.2l-.3-2c-10.5 1.6-21.3-.1-30.6-5Z" fill="#2382D2"/><path d="m131.1 315.2.3 2c3.1-.5 6.2-1.3 9.1-2.3l8.8-2.9-.6-1.9-8.8 2.9c-2.9.9-5.8 1.8-8.8 2.2Z" fill="#4BC3C3"/><path d="m162.692 305.298-14.032 4.707.636 1.896 14.032-4.706-.636-1.897Z" fill="#96CD32"/><path d="m97.7 217.8-.8-1.8c-7.9 3.5-14.6 9.5-19.2 16.8-4.6 7.3-7.1 15.8-7.6 24.3l2 .1c.5-8.2 2.9-16.4 7.3-23.4 4.4-6.9 10.8-12.6 18.3-16Z" fill="#fff"/><path d="M301.7 272.5c4-23.9 15.4-34.7 24.6-38.6 9.2-3.9 19-6 28.7-7.8l26.8 1.8c7.2 3.3 14.1 7.3 20.5 11.9 4.8 3.4 9.4 7.1 12.4 12.1 3.5 5.7 4.7 12.7 4.5 19.4-.2 6.7-1.6 13.4-3.2 19.9-1.1 4.6-2.4 10-3.5 14.8-4.5 16.9-17 33.1-33.5 38.4-16.5 5.4-25.7 6.8-44.3 3.8.6-9.2-.6-30.7.6-30.4 6.6 1.3 23 1.2 28.9-.4 7.3-2 12.5-8.8 15.4-15.8 3-7 3.9-14.6 4.8-22.1" fill="#000"/><path d="M414.7 252c-.8-1.3-1.7-2.5-2.7-3.7 1.2 4.1 1.6 8.4 1.4 12.7-.2 6.9-1.6 13.7-3.2 20.4-1.1 4.7-2.4 10.2-3.5 15.2-4.5 17.3-17 33.9-33.5 39.4-14.6 4.9-23.5 6.6-38.3 4.8 0 2.9 0 5.5-.2 7.6 18.5 3 27.8 1.6 44.3-3.8 16.5-5.4 28.9-21.6 33.5-38.4 1.2-4.8 2.4-10.2 3.5-14.8 1.6-6.6 3-13.2 3.2-19.9.2-6.9-1-13.8-4.5-19.5Z" fill="#000"/><path d="M408.3 243.6c-14.9 11.3-20.9 21.4-23.9 30.7-1.9 5.9-.7 11.8-1.6 17.2-.6 4-2.3 8.1-3.8 11.9-1.3 3.4-5.2 7.6-8.2 10.9-3.1 3.5-7 2.3-11.5 2.5 0 0-9.9-.6-14.3-2.2-.4-.1-1.4-.3-1.8-.4-9.6-3.7-17.9-11.2-22.4-22.7-1.5-3.9-2.5-8.2-2.9-12.9-.5-5.1-.2-10.7 1-16.6.6-3 1.4-6.1 2.5-9.3 6.5-19.4 12.5-21.3 14.2-22.9 0 0 12.5-2.3 18.4-3.3-3.8 11.2-3.6 21.5-2.5 28.7.4 2.5 3.4 3.6 5.3 1.8 9.2-8.7 21.4-21.2 33.5-22.3 5.3-.6 18 8.9 18 8.9Z" fill="#96CD32"/><path d="M304.6 261.3h-.3c-.5-.2-.8-.7-.7-1.3 3.8-12.1 12.7-22.9 22.2-26.9 9.6-4.1 20-6.2 29-7.8.5-.1 1.1.3 1.2.8.1.5-.3 1.1-.8 1.2-8.9 1.6-19.1 3.7-28.5 7.7-8.8 3.8-17.5 14.3-21.1 25.7-.2.3-.6.6-1 .6Z" fill="#000"/><path d="M318.8 262c20.9 7.8 43.2 12 65.5 12.3-1.9 5.9-.8 12.4-1.7 17.8-21.5-.6-44.7-5.8-64.8-13.5l1-16.6ZM378 305.1c-1.3 3.3-5 6-7.8 9.2-2.9 3.3-8.5 2.3-12.7 2.5-4.8-.7-30.7 0-37.3-24.3 17.1 6.4 39.5 11.8 57.8 12.6Z" fill="#fff"/><path d="M282 260.3h15.7c13.7 0 26.3 7.8 32.4 20 5.1 10.2 5.1 22.3 0 32.5-6.2 12.3-18.7 20-32.4 20H282v-72.5Z" fill="#FFC328"/><path d="M330.1 298.1c-6.2 12.3-18.7 20-32.4 20H282v14.7h15.7c13.7 0 26.3-7.8 32.4-20 3.7-7.4 4.7-15.7 3.1-23.6-.6 3-1.6 6-3.1 8.9Z" fill="#EB6E3C" opacity=".5"/><path d="M304.8 333.1c-.2 0-.5-.1-.7-.3-.4-.4-.4-1 0-1.4 8-8.5 12.6-21.2 12.6-34.9 0-.6.4-1 1-1s1 .4 1 1c0 14.2-4.8 27.5-13.2 36.3-.2.2-.5.3-.7.3Z" fill="#000"/><path d="M282 332.8c-14.6 0-26.1-15.9-26.1-36.3 0-20.3 11.5-36.3 26.1-36.3 14.6 0 26.1 15.9 26.1 36.3s-11.5 36.3-26.1 36.3Z" fill="#FFC328"/><path d="M282 333.8c-15.2 0-27.1-16.4-27.1-37.3s11.9-37.3 27.1-37.3c15.2 0 27.1 16.4 27.1 37.3 0 21-11.9 37.3-27.1 37.3Zm0-72.5c-14.1 0-25.1 15.5-25.1 35.3 0 19.8 11 35.3 25.1 35.3 14.1 0 25.1-15.5 25.1-35.3 0-19.8-11.1-35.3-25.1-35.3Z" fill="#000"/><path d="M282 326.4c10.88 0 19.7-13.387 19.7-29.9 0-16.513-8.82-29.9-19.7-29.9-10.88 0-19.7 13.387-19.7 29.9 0 16.513 8.82 29.9 19.7 29.9Z" fill="#EB6E3C" opacity=".5"/><path d="M282 327.4c-11.4 0-20.7-13.9-20.7-30.9s9.3-30.9 20.7-30.9c11.4 0 20.7 13.9 20.7 30.9s-9.3 30.9-20.7 30.9Zm0-59.7c-10.3 0-18.7 13-18.7 28.9 0 15.9 8.4 28.9 18.7 28.9 10.3 0 18.7-13 18.7-28.9 0-16-8.4-28.9-18.7-28.9Z" fill="#000"/><path d="M292 302.1c2.099 0 3.8-2.597 3.8-5.8s-1.701-5.8-3.8-5.8c-2.099 0-3.8 2.597-3.8 5.8s1.701 5.8 3.8 5.8Z" fill="#fff"/><path d="M292 303.1c-2.7 0-4.8-3-4.8-6.8s2.1-6.8 4.8-6.8c2.7 0 4.8 3 4.8 6.8s-2.1 6.8-4.8 6.8Zm0-11.6c-1.5 0-2.8 2.2-2.8 4.8 0 2.6 1.3 4.8 2.8 4.8 1.5 0 2.8-2.2 2.8-4.8 0-2.6-1.3-4.8-2.8-4.8Z" fill="#000"/><path d="M274.9 299c2.099 0 3.8-2.596 3.8-5.8 0-3.203-1.701-5.8-3.8-5.8-2.099 0-3.8 2.597-3.8 5.8 0 3.204 1.701 5.8 3.8 5.8Z" fill="#fff"/><path d="M274.9 300c-2.7 0-4.8-3-4.8-6.8s2.1-6.8 4.8-6.8c2.7 0 4.8 3 4.8 6.8s-2.1 6.8-4.8 6.8Zm0-11.5c-1.5 0-2.8 2.2-2.8 4.8 0 2.6 1.3 4.8 2.8 4.8 1.5 0 2.8-2.2 2.8-4.8 0-2.7-1.3-4.8-2.8-4.8ZM297.7 333.8H282c-.6 0-1-.4-1-1s.4-1 1-1h15.7c13.4 0 25.5-7.5 31.5-19.5 5-9.9 5-21.7 0-31.6-6-12-18.1-19.5-31.5-19.5H282c-.6 0-1-.4-1-1s.4-1 1-1h15.7c14.2 0 27 7.9 33.3 20.6 5.2 10.5 5.2 23 0 33.4-6.3 12.7-19.1 20.6-33.3 20.6Z" fill="#000"/><path d="M378.9 201.6s7.4 4.1 11.6-2.2c4.3-6.3-.7-11.3-3-12.1-2.4-.8-8.1-2-10.8 2.7l-1 1s-2.8-7.2-1-13.2l-.1-1.9s-11 2-15.1 2.3c-3.7.3-7.5-.1-15-2.4 0 0-.3 25.9.1 31.5.4 5.6 3.9 10.2 9.2 10.7l.1 9.6s5.2 7.9 9.7 7.8c4.6 0 14.7-2.9 17.7-4.8 1.6-1 1-2.3 1-2.3l-2.5-25.2-.9-1.5Z" fill="#fff"/><path d="M367.1 177.3c-.2 0-.4.1-.6.1.3-.1.5-.1.6-.1ZM365.9 177.4c-.2 0-.4.1-.6.1.2 0 .4 0 .6-.1ZM368.3 177.1c-.1 0-.3 0-.4.1.1-.1.2-.1.4-.1ZM370.6 176.7c-.1 0-.2 0-.3.1.1-.1.2-.1.3-.1ZM363.1 177.8c-.2 0-.4.1-.6.1.2-.1.4-.1.6-.1ZM364.6 177.6c-.2 0-.4.1-.6.1.2 0 .4-.1.6-.1Z" fill="#1423DC"/><path d="M371.2 176.6c-.2 0-.4.1-.6.1.2 0 .4-.1.6-.1ZM372.9 176.3c-.2 0-.4.1-.7.1.3 0 .5-.1.7-.1ZM374.5 176c-.4.1-.9.2-1.5.3.6-.1 1.1-.3 1.5-.3ZM372.1 176.4c-.2 0-.4.1-.6.1.2 0 .4 0 .6-.1ZM363.9 177.7c-.3 0-.5.1-.8.1.3 0 .6-.1.8-.1ZM362.5 177.9c-.5.1-1 .1-1.5.2.5-.1 1-.2 1.5-.2ZM365.3 177.5c-.2 0-.5.1-.7.1.2 0 .5-.1.7-.1ZM366.6 177.3c-.2 0-.4.1-.7.1.2 0 .5 0 .7-.1ZM369.3 176.9c-.3.1-.7.1-1 .2.3-.1.7-.1 1-.2ZM370.3 176.8c-.2 0-.5.1-.7.1.2-.1.5-.1.7-.1ZM367.8 177.2c-.2 0-.5.1-.7.1.3-.1.5-.1.7-.1Z" fill="#fff"/><path d="M364.2 187.3c-.6-.1-.9.2-1 2.2-.1 2.2.5 2.6 1 2.6s1-.7.9-2.3c-.1-1.7-.2-2.4-.9-2.5ZM349 187.8c-.6-.1-.9.1-1.1 2.1-.2 2.2.4 2.6.9 2.6s1-.7 1-2.3c0-1.5-.1-2.3-.8-2.4ZM392.2 164.2c-1.5-1.8-3.4-3.2-5.6-4.1-1.1-.4-2.3-.6-3.8-.8-.3 0-.5 0-1 .1-4.9-5.1-10.2-7.8-15.5-7.8-5.4.1-9.3 3-10.2 4.7-.5.3-.8.5-.8.5s-8.6-1.9-14.7 3c-.5 2.5-1.6 10.2 4.8 12.6 7.7 2.8 26.4 4.6 29.2 3.4.2-.1.2 0 0 .1.2-.1.4-.1.4-.1s-1 9.6.7 14.4c0 0 2.5-4.4 7.2-4.5 4 0 6 1.5 6.6 1.8-.2.4-.4.3-.5.7.2 0 .5.4.6.2 3.6-5.8 8.7-16.6 2.6-24.2Z" fill="#000"/><path d="M358.9 220.4c-3.8 0-6.6-1.1-8.6-2.3-3.8-2.4-6.4-6.6-6.7-10.7-.5-6.7-.1-30.6-.1-31.6 0-.6.5-1 1-1 .6 0 1 .5 1 1 0 .2-.4 24.9.1 31.5.2 2.7 1.8 6.7 5.8 9.2 3 1.9 8.3 3.4 16.5.1.5-.2 1.1 0 1.3.6.2.5 0 1.1-.6 1.3-3.7 1.4-6.9 1.9-9.7 1.9Z" fill="#000"/><path d="M383.8 204.1c-1.8 0-3.7-.4-5.7-1.2-.5-.2-.8-.8-.6-1.3.2-.5.8-.8 1.3-.6 3.8 1.5 7.2 1.4 9.6-.3 1.8-1.3 2.9-3.4 2.9-5.6 0-3.2-1-8.6-6.7-8.5-4.8.1-6.7 4.2-6.7 4.4-.2.4-.5.6-1 .6-.4 0-.8-.3-.9-.7-2.2-6.5-2.2-11.9-2.1-14.4-19.8 6-37.9-3-38.7-3.3-.5-.2-.7-.8-.4-1.3.2-.5.9-.7 1.3-.4.2.1 19.1 9.4 38.6 2.8.3-.1.7 0 1 .2.3.2.4.6.3.9 0 .1-.8 5.5 1.2 13 1.3-1.6 3.6-3.5 7.3-3.6 5.3-.1 8.6 3.8 8.7 10.5 0 2.9-1.4 5.6-3.8 7.3-1.5.9-3.5 1.5-5.6 1.5Z" fill="#000"/><path d="M385.5 198.7c-.1 0-.3 0-.4-.1l-4.4-2.1c-.3-.1-.4-.3-.5-.6-.1-.3-.1-.6.1-.8l2.9-5c.3-.5.9-.6 1.4-.4.5.3.6.9.4 1.4l-2.4 4.1 3.4 1.6c.5.2.7.8.5 1.3-.2.4-.6.6-1 .6ZM365.9 236.6c-2.4 0-4.5-.4-6.3-1.1-3.7-1.5-5.8-4.3-6-7.8l-.1-8.7c0-.6.4-1 1-1 .5 0 1 .4 1 1l.1 8.6c.2 3.4 2.7 5.2 4.8 6 5.2 2.1 14 1 21-5l-2.4-25.4c-.1-.5.4-1 .9-1.1.6-.1 1 .4 1.1.9l2.4 25.9c0 .3-.1.6-.3.8-5.4 4.9-11.9 6.9-17.2 6.9ZM344.4 195.4c-.2 0-.4 0-.5-.2-.2-.1-5.6-3.6-6.2-8.2-.4-3.2 1.1-5.3 2.3-6.4-3.6-2.5-5.8-5.8-5.5-12.7.1-3.8 2.2-7.2 5.7-9.5 5.1-3.4 12.7-4.2 18.8-1.9.5.2.8.8.6 1.3-.2.5-.8.8-1.3.6-5.5-2-12.3-1.3-16.9 1.7-2.1 1.4-4.7 3.9-4.8 7.9-.3 6.7 1.9 9.4 5.7 11.7.3.2.5.5.5.9s-.2.7-.5.9c-.1.1-3 1.8-2.5 5.3.5 3.7 5.2 6.8 5.3 6.8.5.3.6.9.3 1.4-.4.2-.7.4-1 .4ZM358.6 210.8c-2.6 0-4.2-2.2-4.7-2.9-.2-.3-.2-.6-.1-.9.1-.3.4-.5.7-.6l9.4-2.6c.4-.1.8 0 1 .3.2.3.3.7.1 1.1-1.8 3.6-3.9 5.4-6.1 5.6h-.3Zm-2.1-2.9c.6.6 1.4 1 2.2.9 1.1-.1 2.2-.9 3.3-2.4l-5.5 1.5ZM369 184.6c-.2 0-.5-.1-.7-.3-3-2.7-6.1-.6-6.2-.5-.5.3-1.1.2-1.4-.2-.3-.4-.2-1.1.2-1.4 1.6-1.1 5.4-2.4 8.7.7.4.4.4 1 .1 1.4-.2.2-.5.3-.7.3Z" fill="#000"/><path d="M344.7 184.6c-.3 0-.6-.1-.8-.4-.3-.4-.2-1.1.2-1.4.2-.1 3.9-2.8 7.3-.3.4.3.5 1 .2 1.4-.3.4-1 .5-1.4.2-2.2-1.6-4.9.2-5 .3-.1.2-.3.2-.5.2ZM354.7 203.3c-.1 0-.3 0-.4-.1-.2-.1-.5-.2-.8-.3-2.1-.7-3.4-1.3-3.7-2.3-.2-.6-.1-1.2 0-1.8.8-4.3 2.4-8.4 4.6-12.3.3-.5.9-.6 1.4-.4.5.3.6.9.4 1.4-2.1 3.6-3.6 7.5-4.4 11.6-.1.3-.1.5-.1.7.4.3 1.9.9 2.5 1.1.4.2.8.3 1 .4.5.2.7.8.5 1.3-.3.5-.7.7-1 .7Z" fill="#000"/><path d="m335.8 173 7.8 2.7.3 19.1s-10-8.2-3.2-13.7c.1.1-4.9-6.4-4.9-8.1Z" fill="#000"/><path d="m334 323.1-1.6-.3c-1.8-2-5.9-2.1-8.5-1.6-3.7.8-11.2.5-15.6 1.7-1.7.5-2.9 2.5-1.5 3.7 1.7 1.5 10.7.8 12.3 2-5.9 4.3-19.4 4.7-25.6 5.2-4.1.4-4.8 3.8-1.1 4.5.2 0 4.4 1.1 5.6 1.5 1.6.5 8.2 1.3 9.9 1.3 8.1-.4 12.5-.8 20.6-1.3l4.6-.7" fill="#fff"/><path d="M307.7 342c-2.1 0-8.3-.8-10-1.3-1.2-.4-5.3-1.4-5.5-1.5-2.5-.5-3.3-2-3.2-3.2.1-1.5 1.5-3 4.4-3.3.8-.1 1.7-.1 2.8-.2 5.7-.4 14.8-1.1 20.3-3.7-1-.1-2.1-.2-3.1-.2-3.8-.2-6.2-.4-7.3-1.4-.8-.7-1.1-1.7-.8-2.7.3-1.3 1.4-2.4 2.8-2.7 2.5-.7 5.9-.9 9.2-1.1 2.5-.1 4.8-.3 6.4-.6 3-.6 7.1-.3 9.2 1.7l1.3.3c.5.1.9.6.8 1.2-.1.5-.6.9-1.2.8l-1.6-.3c-.2 0-.4-.2-.5-.3-1.4-1.6-4.9-1.8-7.5-1.3-1.7.4-4.1.5-6.7.7-3.2.2-6.5.4-8.8 1-.6.2-1.2.7-1.3 1.3-.1.4.1.6.2.7.7.6 3.9.8 6.1.9 3.2.2 5.2.3 6.2 1.1.2.2.4.5.4.8 0 .3-.2.6-.4.8-5.4 3.9-16.2 4.7-23.3 5.2-1 .1-1.9.1-2.7.2-1.7.1-2.6.9-2.6 1.4 0 .4.5.9 1.6 1.1.3.1 4.5 1.1 5.7 1.5 1.6.5 8 1.3 9.6 1.2 4-.2 7.2-.4 10.3-.6 3.1-.2 6.2-.4 10.2-.6l4.6-.7c.5-.1 1.1.3 1.1.8.1.5-.3 1.1-.8 1.1l-4.6.7h-.1c-4 .2-7.2.4-10.3.6-3.1.2-6.2.4-10.3.6h-.6ZM210.8 294.5c-.5 0-1-.4-1-.9-.8-11-2.3-21.4-4.4-31.1-2-9.3-7.9-17.3-16-22-5.1-3-10.5-5.2-16.1-6.7-.4-.1-.8-.2-1.3-.3-.7-.1-1.4-.3-2.4-.6-.5-.1-.9-.7-.7-1.2.2-.5.7-.9 1.2-.7 1 .2 1.7.4 2.4.6.5.1 1 .2 1.4.3 5.8 1.6 11.4 3.9 16.6 6.9 8.6 5 14.8 13.5 16.9 23.3 2.1 9.7 3.6 20.3 4.5 31.4-.1.5-.5.9-1.1 1Z" fill="#000"/><path d="m225.9 316.4-33.5 8.2c-15.2 3.7-30.5-5.6-34.2-20.7-3.7-15.2 5.6-30.5 20.7-34.2l33.5-8.2 13.5 54.9Z" fill="#FFC328"/><path d="m189 311.3 33.9-8.4 3.2 13.1-33.5 8.3c-15.2 3.7-30.5-5.5-34.2-20.7-.2-1-.4-1.9-.6-2.9 7.2 8.9 19.2 13.5 31.2 10.6Z" fill="#EB6E3C" opacity=".5"/><path d="M185.6 326.5c-5.3 0-10.5-1.4-15.1-4.3-6.7-4.1-11.4-10.5-13.3-18.1-3.8-15.7 5.8-31.5 21.5-35.4l33.5-8.2c.5-.1 1.1.2 1.2.7l13.5 54.9c.1.3 0 .5-.1.8-.1.2-.4.4-.6.5l-33.5 8.2c-2.4.6-4.7.9-7.1.9Zm26.1-63.8-32.6 8c-14.6 3.6-23.6 18.4-20 33 1.7 7.1 6.1 13 12.3 16.8 6.2 3.8 13.6 4.9 20.6 3.2l32.6-8-12.9-53Z" fill="#000"/><path d="M216.5 278.8c-.4 0-.9-.3-1-.8-.1-.5.2-1.1.7-1.2l36.7-9c.5-.1 1.1.2 1.2.7.1.5-.2 1.1-.7 1.2l-36.7 9c-.1.1-.2.1-.2.1ZM221.9 301.1c-.4 0-.9-.3-1-.8-.1-.5.2-1.1.7-1.2l36.7-9c.5-.1 1.1.2 1.2.7.1.5-.2 1.1-.7 1.2l-36.7 9c0 .1-.1.1-.2.1ZM206.8 322c-.4 0-.9-.3-1-.8l-8.5-34.8c-.1-.5.2-1.1.7-1.2.5-.1 1.1.2 1.2.7l8.5 34.8c.1.5-.2 1.1-.7 1.2 0 .1-.1.1-.2.1Z" fill="#000"/><path d="M156.1 337.4c12.6 1.2 25.5-1 37-6.3 3-1.4 6-3.1 7.6-5.9.3-.6.6-1.2.5-1.9-.2-1.4-1.9-2.3-3.4-2.2-9.8 1.1-25.7 1.5-25.7 1.5.6-2.1 1.8-3.7 3.6-4.8 1.8-1.1 3.9-2 5.8-3.2 1.1-.7 2.2-2 1.8-3.2-.4-1.3-2.1-1.7-3.4-1.6-3.9.2-7.5 2.2-11.3 3.4-4.3 1.4-5.9-.2-12.3 2.9" fill="#fff"/><path d="M162.8 338.7c-2.3 0-4.5-.1-6.8-.3-.5-.1-1-.5-.9-1.1.1-.5.5-1 1.1-.9 12.5 1.2 25.1-1 36.5-6.2 2.7-1.2 5.7-2.9 7.2-5.5.3-.5.4-.9.4-1.2-.1-.9-1.3-1.4-2.3-1.3-9.7 1-25.6 1.5-25.7 1.5-.3 0-.6-.1-.8-.4-.2-.2-.3-.6-.2-.9.7-2.3 2-4.1 4.1-5.4l2.7-1.5c1.1-.6 2.1-1.1 3.1-1.7.8-.5 1.6-1.4 1.4-2.1-.2-.7-1.4-.9-2.4-.9-2.6.1-5 1.1-7.6 2.1-1.1.4-2.3.9-3.5 1.3-1.8.6-3.1.7-4.4.8-2 .2-4 .3-7.8 2.1-.5.2-1.1 0-1.3-.5-.2-.5 0-1.1.5-1.3 4.1-2 6.5-2.2 8.5-2.3 1.3-.1 2.4-.2 4-.7 1.1-.4 2.3-.8 3.4-1.2 2.6-1 5.3-2 8.2-2.2 1.8-.1 3.9.5 4.4 2.3.4 1.5-.4 3.1-2.2 4.3-1.1.7-2.2 1.3-3.3 1.9-.9.5-1.7.9-2.5 1.4-1.2.8-2.1 1.7-2.7 2.9 4.2-.1 16.2-.6 24.1-1.5 1.9-.2 4.2 1 4.5 3 .1 1-.3 1.9-.6 2.5-1.8 3.1-5.1 4.9-8.1 6.3-9.9 4.5-20.4 6.7-31 6.7Z" fill="#000"/><path d="M178.9 330.4c6.2-.8 11.8-1 17.7-3.1 1.6-.6 3.5-1.1 4.4-2.6" fill="#fff"/><path d="M178.9 331.4c-.5 0-.9-.4-1-.9-.1-.5.3-1 .9-1.1 1.3-.2 2.5-.3 3.7-.4 4.7-.5 9.2-1 13.7-2.6l.5-.2c1.3-.5 2.8-1 3.4-2 .3-.5.9-.6 1.4-.3.5.3.6.9.3 1.4-.9 1.6-2.9 2.3-4.4 2.8l-.5.2c-4.8 1.8-9.4 2.2-14.2 2.8-1.2.1-2.5.3-3.7.4 0-.1 0-.1-.1-.1ZM138.5 346.9c-.5 0-.9-.4-1-.9l-.1-.5c-.6-6.5-1.1-11.5 0-18.4.1-.5.6-.9 1.1-.8.5.1.9.6.8 1.1-1.1 6.6-.6 11.6 0 17.9l.1.5c.1.6-.3 1.1-.9 1.1 0 0 .1 0 0 0Z" fill="#000"/><path d="M350.6 350.1h-.3c-.5-.1-.8-.7-.7-1.2 1.5-5.4 1.5-12 1.5-19v-1.4c0-.6.4-1 1-1s1 .5 1 1v1.4c0 7.1 0 13.8-1.6 19.5-.1.4-.5.7-.9.7Z" fill="#fff"/><path d="M183.7 180.5c-4.5-2.3-13.2-16.9-13.2-16.9s-2.3 13-23.7 16.2c0 0 7.4 4.2 4 12.9 0 0-1.8-5-7.4-5.3-5.6-.3-7.8 4.2-8.1 9.1-.3 4.9 4.4 10.5 13.5 7.5l-2.3 5.9c-12.1 18.2-31.7-11.5-11.7-16.6l-.4-1.4c-2.6-9.4-3.5-12.6-2.8-18.9.9-8.1 8-11.5 15.8-13.7 2.9-.8 7.1-1.3 11.1-.8 15.8 1.8 16 11.4 16 11.4" fill="#000"/><path d="M148.2 203.6s-7.5 3.8-11.5-2.7.7-12.2 3.1-12.9c2.4-.7 8.8-.7 11.2 4.1l.5.8s2.6-5.8-3-11.5l6.5-.6s15.7 1.8 19.5-10.1c1.1-3.5 1.4 6.3 9.3 8.7 0 0-.9 25.9-1.5 31.5-.6 5.6-7.1 11.2-12.4 11.4l-.8 9.9s-2.6 6.1-7.2 5.9c-4.6-.2-12.4-1.8-17.4-5.6-1.5-1.2-.9-2.3-.9-2.3l3.7-25.1.9-1.5Z" fill="#fff"/><path d="M164.7 190c.6 0 .9.2.9 2.2 0 2.2-.6 2.6-1.1 2.5-.5-.1-.9-.8-.8-2.4.2-1.5.3-2.3 1-2.3ZM178.8 191.2c.6-.1.9.2 1 2.2.1 2.2-.5 2.6-1 2.6s-1-.8-.9-2.3c.1-1.7.1-2.4.9-2.5Z" fill="#000"/><path d="M168.2 223.4c-2.9 0-6.4-.7-10.5-2.6-.5-.2-.7-.8-.5-1.3.2-.5.8-.7 1.3-.5 8 3.7 13.4 2.4 16.5.7 4.1-2.3 5.9-6.2 6.2-8.9.8-6.6 1.5-31.2 1.5-31.4 0-.6.5-1 1-1 .6 0 1 .5 1 1 0 1-.8 25-1.6 31.6-.5 4.1-3.3 8.2-7.2 10.4-1.8 1-4.4 2-7.7 2Z" fill="#000"/><path d="M143.8 205.8c-2.4 0-4.5-.7-6.2-2-2.3-1.8-3.6-4.6-3.4-7.4.2-2.9 1-5.3 2.3-7.1 1.6-2.1 4-3.1 6.9-3 3.7.2 5.9 2.2 7.1 3.8 1.4-6-2.3-7.9-2.5-8-.4-.2-.6-.7-.5-1.1.1-.5.5-.8 1-.8 12 .2 18.2-2.7 21.3-5.2 3.3-2.6 3.8-5.3 3.8-5.3.1-.4.4-.7.8-.8.4-.1.8.1 1 .5 0 .1 4.6 8 8.8 10.1.5.3.7.9.4 1.3-.3.5-.9.7-1.3.4-3.4-1.7-6.8-6.5-8.5-9.1-1.7 3.4-7.1 9.7-23.7 10.1 1.5 1.9 2.8 5.2.6 10.7-.2.4-.5.7-.9.6-.4 0-.8-.3-.9-.7-.1-.2-1.7-4.4-6.5-4.7-2.2-.1-4 .6-5.2 2.2-1.1 1.4-1.7 3.5-1.9 6-.1 2.2.9 4.4 2.6 5.7 2.3 1.8 5.7 2 9.5.7.5-.2 1.1.1 1.3.6.2.5-.1 1.1-.6 1.3-1.9.9-3.6 1.2-5.3 1.2Z" fill="#000"/><path d="M141.8 200.4c-.4 0-.8-.2-.9-.6-.2-.5 0-1.1.5-1.3l3.5-1.5-2.2-4.2c-.3-.5-.1-1.1.4-1.3.5-.3 1.1-.1 1.3.4l2.7 5.2c.1.2.1.5.1.8-.1.3-.3.5-.6.6l-4.5 1.9h-.3Z" fill="#000"/><path d="M159.6 239.4c-5.5 0-11.8-2.8-16.9-7.8-.3-.3-.4-.6-.3-1l3.6-25.8c.1-.6.7-1.1 1.3-1 .6.1 1 .7 1 1.3l-3.5 25.2c6.7 6.4 14.4 7.7 18.7 6.1 1.9-.7 4.3-2.2 4.7-5.8l.5-8.5c0-.6.6-1.1 1.2-1.1s1.1.6 1.1 1.2l-.5 8.6c-.4 3.7-2.6 6.5-6.2 7.7-1.5.7-3.1.9-4.7.9Z" fill="#1423DC"/><path d="M168.3 187.8c-.2 0-.5-.1-.7-.3-.1-.1-3-2.6-6.2-.3-.4.3-1.1.2-1.4-.2-.3-.4-.2-1.1.2-1.4 3.6-2.6 7.3-.9 8.8.4.4.4.4 1 .1 1.4-.2.2-.5.4-.8.4ZM177.1 188.5c-.3 0-.6-.1-.8-.4-.4-.4-.3-1.1.1-1.4 3.2-2.7 7.2-.3 7.3-.2.5.3.6.9.3 1.4-.3.5-.9.6-1.4.3-.1-.1-2.9-1.8-5 0 0 .2-.3.3-.5.3ZM172.4 206.4c-.4 0-.8-.2-.9-.6-.2-.5 0-1.1.5-1.3.2-.1.6-.2 1.1-.3.5-.2 1.7-.5 2.3-.7-.2-.7-.7-1.7-1.2-2.7-1.2-2.6-2.7-5.8-2.5-8.8 0-.6.5-1 1-1 .6 0 1 .5 1 1-.1 2.5 1.3 5.5 2.4 7.9.7 1.4 1.2 2.6 1.4 3.6.3 1.5-1.7 2-3.8 2.6-.4.1-.7.2-.9.3h-.4ZM170.3 212.8c-.4 0-.9 0-1.4-.2-1.9-.5-3.6-1.9-4.8-4.2-.3-.5-.1-1.1.4-1.4.5-.3 1.1-.1 1.4.4 1 1.8 2.2 2.9 3.5 3.2 1.8.5 3.4-.6 3.4-.6.5-.3 1.1-.2 1.4.3.3.5.2 1.1-.3 1.4-.2.1-1.6 1.1-3.6 1.1Z" fill="#000"/><path d="M137.5 216.7c-1.2 0-2.2-.2-3-.5-5.3-1.7-9.5-7.8-9.4-13.6.1-4.8 3.2-8.4 8.4-10l-.2-.7c-2.5-9.1-3.4-12.6-2.8-19 1-9.1 9.4-12.5 16.6-14.5 3.5-1 7.7-1.3 11.5-.9 16.5 1.9 16.9 12 16.9 12.4 0 .6-.4 1-1 1-.5 0-1-.4-1-1 0-.3-.4-8.7-15.1-10.4-4.1-.5-8.2.1-10.7.8-7 2-14.3 5-15.1 12.8-.6 6.1.2 9.1 2.7 18.2l.5 1.6c.1.3 0 .5-.1.8-.1.2-.4.4-.6.5-5 1.3-7.7 4.3-7.9 8.4-.1 4.9 3.5 10.2 8 11.7 3.8 1.2 7.5-.6 10.5-5 .3-.5.9-.6 1.4-.3.5.3.6.9.3 1.4-3.5 5.1-7.1 6.3-9.9 6.3Z" fill="#000"/><path d="M159.6 239.3c-5.5 0-11.7-2.8-16.8-7.8-.2-.2-.3-.5-.3-.9l3.6-25.8c.1-.5.6-.9 1.1-.9.5.1.9.6.9 1.1l-3.6 25.3c6.8 6.5 14.5 7.8 18.9 6.2 1.9-.7 4.3-2.3 4.7-5.9l.5-8.5c0-.6.5-1 1.1-.9.6 0 1 .5.9 1.1l-.5 8.6c-.4 3.7-2.6 6.4-6.1 7.6-1.2.6-2.8.8-4.4.8ZM146.7 181.5c-.5 0-1-.4-1.1-.9-.1-.6.2-1.2.8-1.4 5.2-1.2 19.1-5.7 21.4-11.9.7-1.8.3-3.6-1.1-5.5-.4-.5-.3-1.2.2-1.6.5-.4 1.2-.3 1.6.2 1.9 2.6 2.3 5.1 1.4 7.6-3.2 8.5-22.2 13.1-23 13.3 0 .2-.1.2-.2.2Z" fill="#000"/><path d="m183.5 194.9 2-13.5s-7.7-3-10.6-12c-2.7-8.2-16.4-10.8-16.4-10.8s24.9-2.3 28.4 11c3.6 13.1-3.4 25.3-3.4 25.3Z" fill="#000"/><path d="M183.5 195.9c-.1 0-.2 0-.3-.1-.5-.2-.7-.6-.7-1.1l1.9-12.8c-2.1-1-7.9-4.5-10.5-12.3-2.5-7.6-15.5-10.1-15.6-10.1-.5-.1-.8-.5-.8-1s.4-.9.9-1c1.1-.1 25.8-2.2 29.5 11.7 3.6 13.4-3.3 25.6-3.6 26.1-.1.4-.5.6-.8.6Zm-18.6-36.4c4.2 1.7 9.2 4.7 10.9 9.5 2.8 8.5 10 11.4 10.1 11.4.4.2.7.6.6 1.1l-.6 4.3c1.1-4.4 1.7-10.1.1-16-2.3-8.3-13.7-10.1-21.1-10.3ZM349.7 350.5c-5 0-10.1-.4-15.1-1.2-.5-.1-.8-.5-.8-1 0-1.8 0-4.3-.1-7.1-.3-22.6.1-23.9 1.4-24.3 1.5-.4 10.6.9 11.7 1 7.2 1.1 11.5-.2 17-2 6.5-2.2 12-7.6 15-14.6 2.9-6.9 3.8-14.5 4.7-21.9.1-.5.6-.9 1.1-.9.5.1.9.6.9 1.1-.9 7.5-1.8 15.2-4.9 22.4-3.2 7.6-9.1 13.3-16.2 15.8-5.5 1.9-10.3 3.2-17.9 2.1-3.5-.5-8.9-1.2-10.5-1.1-.6 2.5-.4 15.3-.3 22.4 0 2.4.1 4.6.1 6.3 16.9 2.5 34 .4 48.1-6 14.2-6.5 22.7-17.5 27.6-35.6.9-3.9 2-8.2 2.9-12.1l.6-2.6c1.5-6.3 3-13 3.2-19.7.2-7.3-1.3-13.9-4.4-18.8-3.1-5-7.9-8.8-12.2-11.8-6.5-4.6-12.6-8.1-19.7-11.4-.5-.2-.7-.8-.5-1.3.2-.5.8-.7 1.3-.5 7.2 3.4 13.4 6.9 20 11.6 4.4 3.1 9.4 7.1 12.7 12.4 3.3 5.3 4.9 12.2 4.7 20-.2 7-1.7 13.8-3.2 20.1l-.6 2.6c-.9 3.9-2 8.3-2.9 12.2-5 18.8-13.9 30.2-28.7 37-10.4 4.4-22.5 6.9-35 6.9Z" fill="#000"/></svg>