<svg aria-hidden="true" width="499" height="499" fill="none" xmlns="http://www.w3.org/2000/svg"><path d="M126.6 268.3c.7-16.6 7.1-23.6 14.8-23.6 8.2 0 14.9 7.8 14.9 26.9 0 2.7-.3 5.2-.7 7.6 8.3 1.2 14.8 8.3 14.8 17 0 9.5-7.7 17.1-17.1 17.1-4.2 0-8.1-1.5-11.1-4.1-3 1.5-6.5 2.3-10.1 2.3-12.4 0-22.5-9.8-22.5-22-.1-10.2 7.1-18.8 17-21.2Z" fill="#96CD32"/><path d="M139.7 312.4c-.6 0-1-.4-1-1 0-29.8 1.7-53.4 1.7-53.7 0-.6.5-1 1.1-.9.6 0 1 .5.9 1.1 0 .2-1.7 23.8-1.7 53.5 0 .6-.5 1-1 1Z" fill="#000"/><path d="M153.1 314.3c-4.1 0-8-1.4-11.2-3.9-3.1 1.4-6.5 2.2-9.9 2.2-12.9 0-23.5-10.3-23.5-23 0-10.3 7-19.3 17.1-22.1 1.2-21.4 11.4-23.8 15.8-23.8 4.8 0 15.9 2.7 15.9 27.9 0 2.3-.2 4.6-.6 6.8 8.4 1.7 14.6 9.1 14.6 17.8 0 10-8.2 18.1-18.2 18.1Zm-11.1-6.1c.2 0 .5.1.6.2 2.9 2.5 6.6 3.8 10.4 3.8 8.9 0 16.1-7.2 16.1-16.1 0-8-6-14.9-13.9-16-.3 0-.5-.2-.7-.4-.2-.2-.2-.5-.2-.8.5-2.4.7-4.9.7-7.4 0-23.4-9.7-25.9-13.9-25.9-8.1 0-13.2 8.2-13.8 22.6 0 .4-.3.8-.8.9-9.6 2.3-16.3 10.7-16.3 20.4 0 11.6 9.6 21 21.5 21 3.4 0 6.6-.8 9.7-2.2.3 0 .5-.1.6-.1Z" fill="#000"/><path d="M139.6 302.3c-.3 0-.5-.1-.8-.3l-12.7-10.7c-.5-.4-.6-1.2-.1-1.7.4-.5 1.2-.6 1.7-.1l12.7 10.7c.5.4.6 1.2.1 1.7-.3.2-.6.4-.9.4ZM140.2 292.4c-.5 0-1-.3-1.1-.8-.2-.6.2-1.3.8-1.5l12.4-3.9c.6-.2 1.3.2 1.5.8.2.6-.2 1.3-.8 1.5l-12.4 3.9h-.4Z" fill="#000"/><path d="M277.1 187.5v184.2H242V212.6l35.1-25.1Z" fill="#D0D3F8"/><path d="M277.1 372.7h-35c-.6 0-1-.4-1-1V212.6c0-.3.2-.6.4-.8l35-25.1c.3-.2.7-.2 1-.1.3.2.5.5.5.9v184.2c.1.6-.4 1-.9 1Zm-34.1-2h33V189.4L243 213v157.7Z" fill="#D0D3F8"/><path d="M242 371.7h-79.8V212.6l35.1-25.1h79.8L242 212.6" fill="#fff"/><path d="M242 372.7h-79.8c-.6 0-1-.4-1-1V212.6c0-.3.2-.6.4-.8l35-25.1c.2-.1.4-.2.6-.2H277c.4 0 .8.3 1 .7.1.4 0 .9-.4 1.1l-35 25.1c-.5.3-1.1.2-1.4-.2-.3-.4-.2-1.1.2-1.4l32.5-23.3h-76.4l-34.4 24.6v157.6H242c.6 0 1 .4 1 1s-.4 1-1 1Z" fill="#000"/><path d="M209.1 345.3h-13.9v26.4h13.9v-26.4Z" fill="#000"/><path d="M209.1 372.7h-13.9c-.6 0-1-.4-1-1v-26.4c0-.6.4-1 1-1h13.9c.6 0 1 .4 1 1v26.4c0 .6-.5 1-1 1Zm-12.9-2h11.9v-24.4h-11.9v24.4Z" fill="#000"/><path d="M225.8 364.4h6.8c1.5-4.5 7.3-7.8 13.1-7.8 1.5 0 4.8.2 6.1.7 1.6-2.9 4.7-4.8 8.4-4.8 4.5 0 8.2 2.9 9.2 6.8 5.9 1.1 10.4 5.2 10.4 10.1 0 .8-.1 1.6-.3 2.4h-60v-.6c0-3.2 2.8-6.8 6.3-6.8Z" fill="#96CD32"/><path d="M235.3 364.8h-2.9c2-4.9 7.8-8.2 13.6-8.2.6 0 .2.4.8.4-5 .6-9.6 3.4-11.5 7.8ZM251.3 357.5l2.9.9s2.5-5.2 10.3-4.7l-2-1.1H258l-2.5 1.1-4.2 3.8ZM263.9 361.9c-3.9 1.8-5.6 5.6-5.6 9.2v.6h-1.8v-.6c0-3.6 1.4-8.7 7.4-9.2Z" fill="#96CD32"/><path d="M279.5 372.7h-60c-.5 0-.9-.4-1-.9v-.7c0-3.6 3.2-7.8 7.3-7.8h6.1c2-4.5 7.7-7.8 13.8-7.8 1.2 0 3.9.2 5.6.5 1.9-2.9 5.2-4.7 8.9-4.7 4.7 0 8.7 2.8 10 6.9 6.2 1.3 10.6 5.8 10.6 11 0 .9-.1 1.8-.4 2.6-.1.6-.5.9-.9.9Zm-59-2h58.2c.1-.5.1-.9.1-1.4 0-4.3-4-8.2-9.5-9.2-.4-.1-.7-.4-.8-.7-.9-3.5-4.3-6-8.2-6-3.2 0-6.1 1.7-7.6 4.3-.2.4-.7.6-1.2.5-1.2-.4-4.3-.6-5.8-.6-5.4 0-10.8 3.1-12.1 7.1-.1.4-.5.7-.9.7h-6.8c-2.9 0-5.2 2.8-5.4 5.3Z" fill="#000"/><path d="M230 229.9h-6v17.2h6v-17.2Z" fill="#DBF3F3"/><path d="M230 248.1h-20.4c-.6 0-1-.4-1-1v-17.2c0-.6.4-1 1-1H230c.6 0 1 .4 1 1v17.2c0 .6-.4 1-1 1Zm-19.3-2H229v-15.2h-18.4v15.2h.1Z" fill="#000"/><path d="M230 284h-6v17.2h6V284Z" fill="#DBF3F3"/><path d="M230 302.2h-20.4c-.6 0-1-.4-1-1V284c0-.6.4-1 1-1H230c.6 0 1 .4 1 1v17.2c0 .5-.4 1-1 1Zm-19.3-2H229V285h-18.4v15.2h.1Z" fill="#000"/><path d="M194.5 311h-6v17.4h6V311Z" fill="#DBF3F3"/><path d="M194.6 312.2h-20.4c-.6 0-1-.4-1-1s.4-1 1-1h20.4c.6 0 1 .4 1 1s-.5 1-1 1Z" fill="#1423DC"/><path d="M194.6 329.4h-20.4c-.6 0-1-.4-1-1v-17.2c0-.6.4-1 1-1h20.4c.6 0 1 .4 1 1v17.2c0 .6-.5 1-1 1Zm-19.4-2h18.4v-15.2h-18.4v15.2Z" fill="#000"/><path d="M194.5 257h-6v17.2h6V257Z" fill="#DBF3F3"/><path d="M194.6 258h-20.4c-.6 0-1-.4-1-1s.4-1 1-1h20.4c.6 0 1 .4 1 1s-.5 1-1 1Z" fill="#1423DC"/><path d="M194.6 275.1h-20.4c-.6 0-1-.4-1-1V257c0-.6.4-1 1-1h20.4c.6 0 1 .4 1 1v17.2c0 .5-.5.9-1 .9Zm-19.4-2h18.4V258h-18.4v15.1Z" fill="#000"/><path d="m391.7 328-7.1 43.7H265.3v-107h78.9l10 57.3 37.5 6Z" fill="#fff"/><path d="M384.6 372.7H265.3c-.6 0-1-.4-1-1v-107c0-.6.4-1 1-1h78.8c.5 0 .9.3 1 .8l9.9 56.6 36.7 5.9c.3 0 .5.2.7.4.2.2.2.5.2.7l-7.1 43.7c0 .6-.4.9-.9.9Zm-118.3-2h117.4l6.8-41.9-36.5-5.9c-.4-.1-.8-.4-.8-.8l-9.9-56.5h-77v105.1Z" fill="#000"/><path d="M367.7 264.7v54.6h-11.8l-11.7 8.7v-63.3l11.7-12 11.8 12Z" fill="#D0D3F8"/><path d="M344.2 329c-.2 0-.3 0-.4-.1-.3-.2-.6-.5-.6-.9v-63.3c0-.3.1-.5.3-.7l11.7-12c.4-.4 1.1-.4 1.4 0l11.7 12c.2.2.3.4.3.7v54.6c0 .6-.4 1-1 1h-11.4l-11.5 8.5c-.1.2-.3.2-.5.2Zm1-63.9V326l10.1-7.6c.2-.1.4-.2.6-.2h10.7V265l-10.7-11-10.7 11.1ZM408.1 328v43.7h-23.5V328l11.7-12 11.8 12Z" fill="#D0D3F8"/><path d="M408.1 372.7h-23.5c-.6 0-1-.4-1-1V328c0-.3.1-.5.3-.7l11.7-12c.4-.4 1.1-.4 1.4 0l11.7 12c.2.2.3.4.3.7v43.6c.1.6-.4 1.1-.9 1.1Zm-22.5-2h21.5v-42.2l-10.7-11-10.7 11v42.2h-.1Z" fill="#D0D3F8"/><path d="m355.9 252.7-11.7 12h-78.9l11.8-12h78.8Z" fill="#EB6E3C"/><path d="M344.2 265.7h-78.8c-.4 0-.8-.2-.9-.6-.1-.4-.1-.8.2-1.1l11.7-12c.2-.2.4-.3.7-.3h78.8c.4 0 .8.2.9.6.1.4.1.8-.2 1.1l-11.7 12c-.2.2-.5.3-.7.3Zm-76.5-2h76.1l9.8-10h-76.1l-9.8 10ZM396.3 316l-11.7 12h-40.4l11.7-12h40.4Z" fill="#EB6E3C"/><path d="M384.6 329h-40.4c-.4 0-.8-.2-.9-.6-.1-.4-.1-.8.2-1.1l11.7-12c.2-.2.4-.3.7-.3h40.4c.4 0 .8.2.9.6.1.4.1.8-.2 1.1l-11.7 12c-.2.2-.4.3-.7.3Zm-38-2h37.6l9.8-10h-37.6l-9.8 10Z" fill="#EB6E3C"/><path d="M320.1 345.3h-30.4v26.4h30.4v-26.4Z" fill="#000"/><path d="M320.1 372.7h-30.4c-.6 0-1-.4-1-1v-26.4c0-.6.4-1 1-1h30.4c.6 0 1 .4 1 1v26.4c0 .6-.4 1-1 1Zm-29.4-2h28.4v-24.4h-28.4v24.4Z" fill="#000"/><path d="M330.8 276.8h-5.4v10.3h5.4v-10.3ZM296.2 297.5h-5.4v10.3h5.4v-10.3ZM330.8 318.1h-5.4v10.3h5.4v-10.3Z" fill="#DBF3F3"/><path d="M330.8 329.4h-21.3c-.6 0-1-.4-1-1v-10.3c0-.6.4-1 1-1h21.3c.6 0 1 .4 1 1v10.3c0 .6-.4 1-1 1Zm-20.3-2h19.3v-8.3h-19.3v8.3ZM296.2 308.7h-21.3c-.6 0-1-.4-1-1v-10.3c0-.6.4-1 1-1h21.3c.6 0 1 .4 1 1v10.3c0 .6-.5 1-1 1Zm-20.4-2h19.3v-8.3h-19.3v8.3ZM330.8 288h-21.3c-.6 0-1-.4-1-1v-10.3c0-.6.4-1 1-1h21.3c.6 0 1 .4 1 1V287c0 .6-.4 1-1 1Zm-20.3-2h19.3v-8.3h-19.3v8.3Z" fill="#000"/><path d="m242 212.6 35.1-25.1h-10l-35 25.1h9.9ZM216.1 212.6l35-25.1h-9.9l-35 25.1h9.9Z" fill="#DBF3F3"/><path d="M242 213.6h-25.9c-.4 0-.8-.3-1-.7-.1-.4 0-.9.4-1.1l35-25.1c.2-.1.4-.2.6-.2H277c.4 0 .8.3 1 .7.1.4 0 .9-.4 1.1l-35 25.1c-.2.1-.4.2-.6.2Zm-22.8-2h22.5l32.2-23.1h-22.5l-32.2 23.1Z" fill="#000"/><path d="M204 204.6c-1.9.3-3.9.4-5.7.3-7.2-.2-13.4-2.6-16.4-6.4l15.4-11H224c.1.2.1.4.1.7 1.1 7.4-8 14.7-20.1 16.4Z" fill="#FFC328"/><path d="M216.1 213.6h-28.6c-.4 0-.8-.3-1-.7-.1-.4 0-.9.4-1.1l35-25.1c.2-.1.4-.2.6-.2h28.6c.4 0 .8.3 1 .7.1.4 0 .9-.4 1.1l-35 25.1c-.2.1-.4.2-.6.2Zm-25.4-2h25.1l32.3-23.1H223l-32.3 23.1Z" fill="#000"/><path d="m187.5 212.6 35.1-25.1h-9.9l-35.1 25.1h9.9Z" fill="#DBF3F3"/><path d="M261.6 199.6h-79.8c-.6 0-1-.4-1-1s.4-1 1-1h79.8c.6 0 1 .4 1 1s-.5 1-1 1Z" fill="#000"/><path d="M187.6 213.6h-25.3c-.4 0-.8-.3-1-.7-.1-.4 0-.9.4-1.1l35-25.1c.2-.1.4-.2.6-.2h25.3c.4 0 .8.3 1 .7.1.4 0 .9-.4 1.1l-35 25.1c-.2.1-.4.2-.6.2Zm-22.3-2h21.9l32.3-23.1h-21.9l-32.3 23.1Z" fill="#000"/><path d="M403.5 318.5c-.7-14.8-6.3-21-13.2-21-7.3 0-13.3 7-13.3 24 0 2.4.2 4.6.6 6.8-7.4 1-13.2 7.4-13.2 15.1 0 8.4 6.8 15.3 15.3 15.3 3.8 0 7.2-1.4 9.9-3.6 2.7 1.3 5.8 2.1 9 2.1 11.1 0 20-8.8 20-19.6.2-9.3-6.3-17-15.1-19.1Z" fill="#96CD32"/><path d="M392.1 372.7c-.6 0-1-.4-1-1 0-26.5-1.7-62.2-1.7-62.5 0-.6.4-1 1-1 .5 0 1 .4 1 1 0 .4 1.7 36.1 1.7 62.6 0 .5-.5.9-1 .9Z" fill="#000"/><path d="M379.9 359.6c-9 0-16.3-7.3-16.3-16.3 0-7.7 5.5-14.4 13-15.9-.3-1.9-.5-3.9-.5-5.9 0-22.6 10-25 14.3-25 3.9 0 13.1 2.1 14.2 21.2 9 2.5 15.3 10.5 15.3 19.8 0 11.4-9.4 20.6-21 20.6-2.8 0-4.2-.8-6-1.8-.3-.2-.7-.4-1.1-.6-3.1 2.2-8.2 3.9-11.9 3.9Zm10.5-61.1c-7.8 0-12.3 8.4-12.3 23 0 2.2.2 4.4.6 6.6.1.3 0 .5-.2.8-.2.3-.4.4-.7.4-7 1-12.3 7-12.3 14.1 0 7.9 6.4 14.3 14.3 14.3 3.5 0 8.6-1.8 11.1-3.9.3-.3.7-.3 1.1-.1.6.3 1.2.6 1.7.9 1.7.9 2.8 1.5 5 1.5 10.5 0 19-8.3 19-18.6 0-8.6-5.9-16-14.5-18-.4-.1-.7-.5-.8-.9-.4-12.8-4.9-20.1-12-20.1Z" fill="#000"/><path d="M391.9 348.7c-.3 0-.6-.1-.8-.4-.4-.4-.3-1.1.1-1.4l11.4-9.6c.4-.4 1.1-.3 1.4.1.3.4.3 1.1-.1 1.4l-11.4 9.6c-.1.2-.3.3-.6.3ZM391.3 339.9h-.3l-10.9-3.4c-.5-.2-.8-.7-.7-1.3.2-.5.7-.8 1.3-.7l10.9 3.4c.5.2.8.7.7 1.3-.2.4-.6.7-1 .7Z" fill="#000"/><path d="m201 352.3-.7 1.9c10.8 4 22.1 6.6 33.6 7.9l.2-2c-11.3-1.3-22.5-3.9-33.1-7.8Z" fill="#4BC3C3"/><path d="m234.1 360.1-.2 2c2.7.3 5.4.5 8.1.6l.1-2c-2.7-.1-5.4-.4-8-.6Z" fill="#41A57D"/><path d="m242.1 360.7-.1 2c4 .2 8.1.2 12.1.1 2 0 4-.2 6-.3l3-.2 3-.3-.2-2-3 .3-3 .2c-2 .1-4 .3-6 .3-3.9.1-7.8.1-11.8-.1ZM346.2 321.6l1.5 1.4 2.9-3 2.7-3.1c.9-1 1.8-2.1 2.7-3.2.9-1.1 1.8-2.2 2.6-3.3l-1.6-1.2c-.8 1.1-1.7 2.2-2.5 3.2-.8 1.1-1.7 2.2-2.6 3.2l-2.7 3.1-3 2.9Z" fill="#41A57D"/><path d="m329.7 335.7 1.2 1.7c2.3-1.5 4.3-3.3 6.5-4.9l-1.3-1.6c-2.2 1.6-4.2 3.3-6.4 4.8Z" fill="#1423DC"/><path d="m336.1 330.9 1.3 1.6c1.8-1.5 3.6-3 5.3-4.6l2.5-2.4 1.3-1.2 1.2-1.3-1.5-1.4-1.2 1.2-1.2 1.2-2.5 2.4c-1.7 1.5-3.5 3-5.2 4.5Z" fill="#FFC328"/><path d="m310.8 347 .9 1.8c6.7-3.3 13.1-7.1 19.2-11.4l-1.2-1.7c-6 4.3-12.3 8.1-18.9 11.3Z" fill="#2382D2"/><path d="m356.9 309.1 1.6 1.2c1.4-2.1 3-4.1 4.3-6.2.7-1.1 1.4-2.1 2-3.2l1.9-3.3.9-1.7.8-1.7 1.7-3.4 1.5-3.5.8-1.7c.2-.6.5-1.2.7-1.8l-1.9-.7c-.2.6-.4 1.2-.7 1.7l-.7 1.7-1.5 3.4-1.7 3.3-.8 1.7-.9 1.6-1.8 3.2c-.6 1.1-1.3 2.1-2 3.1-1.3 2.3-2.8 4.3-4.2 6.3Z" fill="#4BC3C3"/><path d="m371.2 283.1 1.9.7c2.2-5.4 3.7-11.1 5-16.7l-2-.4c-1.2 5.6-2.7 11.1-4.9 16.4Z" fill="#fff"/><path d="m376.1 266.7 2 .4c.5-2.3.9-4.6 1.2-6.9l.5-3.5.3-3.5-2-.2-.3 3.4-.5 3.4c-.2 2.4-.7 4.6-1.2 6.9ZM265.9 360l.2 2c15.8-1.8 31.3-6.2 45.6-13.1l-.9-1.8c-14.1 6.8-29.4 11.1-44.9 12.9Z" fill="#96CD32"/><path d="m378.1 253.1 2 .2.2-2.2c0-.7 0-1.4.1-2.2l.1-4.3c-.1-2.9-.1-5.8-.4-8.7-.1-1.4-.2-2.9-.4-4.3l-.6-4.3c-.2-1.4-.5-2.8-.8-4.3l-.4-2.1-.5-2.1-2 .5.5 2.1.4 2.1c.3 1.4.6 2.8.8 4.2l.6 4.2c.2 1.4.3 2.8.4 4.2.3 2.8.3 5.7.4 8.5l-.1 4.3c0 .7 0 1.4-.1 2.1l-.2 2.1Z" fill="#4BC3C3"/><path d="m375.4 219.3 2-.5c-.3-1.3-.7-2.6-1-3.9l-1.2-3.9-1.9.6 1.2 3.8c.2 1.3.5 2.6.9 3.9Z" fill="#41A57D"/><path d="m373.1 211.6 1.9-.6c-2.5-7.7-5.9-15.1-10-22l-1.7 1c4.1 6.9 7.4 14.1 9.8 21.6Z" fill="#96CD32"/><path d="m293.3 135.4.6-1.9c-2.7-.8-5.3-1.7-8-2.3-1.4-.3-2.7-.7-4-1l-4.1-.9-.4 2 4 .8c1.3.3 2.7.7 4 1 2.7.7 5.3 1.5 7.9 2.3Z" fill="#41A57D"/><path d="m313.4 143.8.9-1.8c-2.4-1.3-4.9-2.4-7.3-3.5l-.8 1.9c2.4 1.1 4.8 2.1 7.2 3.4Z" fill="#fff"/><path d="m306.2 140.3.8-1.9c-2.1-.9-4.3-1.8-6.5-2.7-2.2-.8-4.4-1.6-6.6-2.3l-.6 1.9c2.2.7 4.3 1.5 6.5 2.3 2.1 1 4.3 1.8 6.4 2.7Z" fill="#FFC328"/><path d="m332 155.4 1.2-1.6c-6-4.5-12.3-8.4-18.9-11.8l-.9 1.8c6.5 3.4 12.8 7.3 18.6 11.6Z" fill="#2382D2"/><path d="m277.4 131.3.4-2-1.9-.4-1.9-.3-3.7-.6c-2.5-.4-5-.6-7.5-.9-2.5-.2-5-.4-7.6-.5l-3.8-.1h-3.8v2h3.8l3.7.1c2.5.1 5 .3 7.4.5 2.5.3 4.9.5 7.4.9l3.7.6 1.8.3 2 .4Z" fill="#4BC3C3"/><path d="M247.7 128.6v-2l-4.4.1c-1.5.1-2.9.2-4.4.3-2.9.1-5.8.6-8.7.9l.3 2c2.9-.3 5.7-.7 8.6-.9 1.4-.1 2.9-.2 4.3-.3l4.3-.1Z" fill="#fff"/><path d="m230.6 129.8-.3-2c-2.3.3-4.6.7-6.9 1.1-2.3.5-4.6.9-6.9 1.4l.5 2c2.2-.5 4.5-1 6.8-1.4 2.2-.3 4.5-.7 6.8-1.1Z" fill="#96CD32"/><path d="m363.3 190 1.7-1c-8.1-13.7-19.1-25.6-31.8-35.2l-1.2 1.6c12.6 9.4 23.3 21.2 31.3 34.6Z" fill="#fff"/><path d="m217 132.3-.5-2c-11.2 2.7-22.1 6.6-32.3 12l.9 1.8c10.1-5.2 20.9-9.1 31.9-11.8Z" fill="#4BC3C3"/><path d="m185.1 144.2-.9-1.8c-2.4 1.2-4.8 2.6-7.1 4l1 1.7c2.4-1.3 4.6-2.7 7-3.9Z" fill="#41A57D"/><path d="m178.1 148.1-1-1.7c-6.9 4.2-13.4 9-19.5 14.3l1.4 1.5c5.9-5.3 12.3-10 19.1-14.1Z" fill="#96CD32"/><path d="m120.9 241.6-2-.1c-.2 5.6.1 11.2.8 16.7l2-.3c-.8-5.3-1-10.8-.8-16.3Z" fill="#41A57D"/><path d="m123.7 220.1-2-.5c-.4 1.3-.6 2.7-.9 4-.2 1.3-.6 2.7-.7 4l2 .3c.2-1.3.5-2.6.7-3.9l.9-3.9Z" fill="#fff"/><path d="m122.1 228-2-.3c-.3 2.3-.7 4.6-.9 6.9l-.3 3.5c-.1 1.2-.1 2.3-.1 3.5l2 .1c0-1.1 0-2.3.1-3.4l.3-3.4c.2-2.4.7-4.6.9-6.9Z" fill="#FFC328"/><path d="m131 199.4-1.8-.9c-3.2 6.8-5.7 13.8-7.4 21.1l2 .5c1.6-7.1 4.1-14 7.2-20.7Z" fill="#2382D2"/><path d="m121.6 258-2 .3c.7 5 1.6 10 2.9 14.9 1.4 4.9 3 9.7 5 14.3l1.9-.8c-1.9-4.6-3.6-9.3-4.9-14-1.2-4.9-2.2-9.7-2.9-14.7ZM129.5 286.7l-1.9.8c2.3 5.4 5 10.5 8.1 15.5l1.7-1.1c-3-4.9-5.7-10-7.9-15.2Z" fill="#4BC3C3"/><path d="m137.4 301.9-1.7 1.1c2.5 3.9 5.2 7.7 8.1 11.4l1.6-1.3c-2.8-3.6-5.5-7.4-8-11.2Z" fill="#96CD32"/><path d="m159 162.2-1.4-1.5c-11.9 10.6-21.7 23.5-28.5 37.9l1.8.9c6.7-14.2 16.4-26.9 28.1-37.3Z" fill="#fff"/><path d="M183 312.4h-49.8v59.3H183v-59.3Z" fill="#D0D3F8"/><path d="M183.1 372.7h-49.8c-.6 0-1-.4-1-1v-59.3c0-.6.4-1 1-1h49.8c.6 0 1 .4 1 1v59.3c0 .6-.5 1-1 1Zm-48.9-2H182v-57.3h-47.8v57.3Z" fill="#D0D3F8"/><path d="M133.2 312.4 111.5 294l-21.7 18.4v59.3h43.4" fill="#fff"/><path d="M133.2 372.7H89.8c-.6 0-1-.4-1-1v-59.3c0-.3.1-.6.4-.8l21.7-18.3c.4-.3.9-.3 1.3 0l21.7 18.3c.4.4.5 1 .1 1.4-.4.4-1 .5-1.4.1l-21.1-17.8-20.7 17.5v57.9h42.4c.6 0 1 .4 1 1s-.4 1-1 1Z" fill="#000"/><path d="M183.1 312.4h-49.9L111.5 294h49.8l21.8 18.4Z" fill="#000"/><path d="M183.1 313.4h-49.8c-.2 0-.5-.1-.6-.2L111 294.9c-.3-.3-.4-.7-.3-1.1.1-.4.5-.7.9-.7h49.8c.2 0 .5.1.6.2l21.7 18.3c.3.3.4.7.3 1.1-.1.4-.5.7-.9.7Zm-49.5-2h46.7L161 295h-46.7l19.3 16.4Z" fill="#000"/><path d="M105.9 322h-4.6v13.9h4.6V322ZM126.5 322h-4.6v13.9h4.6V322Z" fill="#DBF3F3"/><path d="M105.8 336.9h-9.1c-.6 0-1-.4-1-1v-13.7c0-.6.4-1 1-1h9.1c.6 0 1 .4 1 1v13.7c0 .6-.5 1-1 1Zm-8.1-2h7.1v-11.7h-7.1v11.7ZM126.4 336.9h-9.1c-.6 0-1-.4-1-1v-13.7c0-.6.4-1 1-1h9.1c.6 0 1 .4 1 1v13.7c0 .6-.5 1-1 1Zm-8.1-2h7.1v-11.7h-7.1v11.7ZM438.6 372.7H60.7c-.6 0-1-.4-1-1s.4-1 1-1h377.8c.6 0 1 .4 1 1s-.4 1-.9 1Z" fill="#000"/></svg>