<svg aria-hidden="true" width="499" height="499" fill="none" xmlns="http://www.w3.org/2000/svg"><path d="m285.2 126.7-1.3-1.6c-7.7 6.4-16.5 11.6-26.1 14.2l.6 2c9.9-2.7 19-8 26.8-14.6Z" fill="#4BC3C3"/><path d="m258.3 141.4-.6-2c-1.1.4-2.3.6-3.4.9-1.1.3-2.3.6-3.5.7l.4 2c1.2-.2 2.4-.5 3.5-.8 1.3-.2 2.5-.5 3.6-.8Z" fill="#41A57D"/><path d="m251.3 143-.4-2c-6.9 1.3-13.9 1.9-21 2.4l.2 2c7-.4 14.2-1 21.2-2.4Z" fill="#96CD32"/><path d="m190.6 194.5-1.7 1c2.6 4.3 6.1 8.1 10.3 10.9l1.1-1.7c-3.9-2.6-7.2-6.1-9.7-10.2Z" fill="#41A57D"/><path d="m186.2 176.5-2-.1c0 .6 0 1.2-.1 1.8 0 .6.1 1.2.1 1.8 0 .6.1 1.2.1 1.8l.3 1.8 2-.3-.3-1.7c0-.6-.1-1.2-.1-1.7 0-.6-.1-1.2-.1-1.7.1-.5.1-1.1.1-1.7Z" fill="#1423DC"/><path d="m186.6 183.4-2 .3c.7 4.2 2.1 8.2 4.3 11.8l1.7-1c-2-3.4-3.4-7.2-4-11.1Z" fill="#FFC328"/><path d="m192.8 159-1.6-1.3-.2.2-.1.1v.1c-.1.1-.3.4-.3.7l.2-.6c-3.9 5.2-6.3 11.7-6.7 18.2l2 .1c.3-6.2 2.6-12.2 6.2-17.1l.2-.6c0 .2-.1.5-.2.6v-.1l.1-.1.4-.2Z" fill="#2382D2"/><path d="m200.3 204.8-1.1 1.7c7.6 5.1 17.4 6.8 26.3 4.7l-.5-2c-8.3 2-17.5.3-24.7-4.4Z" fill="#4BC3C3"/><path d="m225 209.2.5 2c5.1-1.2 10-3.6 14-7l-1.3-1.6c-3.8 3.2-8.3 5.5-13.2 6.6Z" fill="#1423DC"/><path d="m238.2 202.6 1.3 1.6c1.6-1.4 3.1-2.9 4.4-4.5l3.8-4.8-1.6-1.3-3.8 4.8c-1.2 1.5-2.6 2.9-4.1 4.2Z" fill="#96CD32"/><path d="m230.1 145.5-.2-2c-7 .5-14 .9-20.9 2.6-3.5.9-6.9 2.3-9.9 4.3-3 2.1-5.6 4.5-7.9 7.3l1.6 1.3c2.2-2.6 4.7-5 7.4-6.9 2.8-1.9 5.9-3.2 9.2-4 6.7-1.7 13.7-2.1 20.7-2.6Z" fill="#1423DC"/><path d="m246.2 193.5 1.6 1.3c3.2-3.8 6.7-7.5 10.5-10.8 3.8-3.2 7.8-6.3 12.1-8.8l-1.1-1.7c-4.4 2.6-8.5 5.7-12.4 9-3.9 3.4-7.4 7.1-10.7 11Z" fill="#4BC3C3"/><path d="m269.3 173.5 1.1 1.7c1-.6 2.1-1.2 3.1-1.8 1-.6 2-1.2 3.1-1.7l-.9-1.8c-1.1.5-2.1 1.1-3.2 1.7-1.1.7-2.2 1.2-3.2 1.9Z" fill="#41A57D"/><path d="m275.7 170 .9 1.8c6.3-3.1 12.9-5.5 19.7-7.1l-.5-2c-6.9 1.7-13.7 4.1-20.1 7.3Z" fill="#96CD32"/><path d="m372.9 180.7-1.3 1.6c3.7 3.1 7.2 6.4 10.5 10l1.5-1.3c-3.3-3.7-6.9-7.2-10.7-10.3Z" fill="#41A57D"/><path d="m356.4 170.1-.9 1.8c1 .6 2.1 1 3.1 1.6l3.1 1.8 1.1-1.7-3.1-1.8c-1.1-.7-2.2-1.2-3.3-1.7Z" fill="#1423DC"/><path d="m362.8 173.5-1.1 1.7c3.4 2.1 6.8 4.4 9.9 7l1.3-1.6c-3.2-2.5-6.6-4.9-10.1-7.1Z" fill="#FFC328"/><path d="m337.8 163.2-.5 2c6.3 1.5 12.4 3.8 18.2 6.7l.9-1.8c-5.9-3-12.1-5.4-18.6-6.9Z" fill="#2382D2"/><path d="m383.6 191-1.5 1.3c2.9 3.3 5.6 6.8 8 10.5 2.4 3.7 4.5 7.5 6.3 11.5l1.8-.8c-1.9-4.1-4-8-6.5-11.8-2.4-3.8-5.1-7.4-8.1-10.7Z" fill="#4BC3C3"/><path d="m398.2 213.5-1.8.8c2.1 4.6 3.8 9.4 5.1 14.3l2-.5c-1.4-5.1-3.1-9.9-5.3-14.6Z" fill="#1423DC"/><path d="m403.4 228.1-2 .5c.2 1 .5 2 .7 3l.3 1.5.3 1.5.5 3 .4 3 2-.2-.4-3.1-.5-3.1-.3-1.5-.3-1.5c-.2-1.1-.4-2.1-.7-3.1Z" fill="#96CD32"/><path d="m295.9 162.8.5 2c6.7-1.5 13.6-2.3 20.5-2.2 6.9.1 13.8.9 20.5 2.6l.5-2c-6.9-1.7-13.9-2.6-21-2.7-7.1 0-14.2.7-21 2.3Z" fill="#1423DC"/><path d="m405.7 240.3-2 .2c.6 5 .7 10 .5 15-.3 5-1 10-2.1 14.9l2 .4c1.1-5 1.8-10.1 2.1-15.2.2-5.1.1-10.2-.5-15.3Z" fill="#4BC3C3"/><path d="m404.1 270.8-2-.4c-.5 2.3-1.2 4.6-1.8 6.8l1.9.6c.7-2.3 1.4-4.6 1.9-7Z" fill="#41A57D"/><path d="m402.2 277.8-1.9-.6c-2.1 6.7-5 13.1-8.6 19.1l1.7 1c3.7-6.1 6.6-12.6 8.8-19.5Z" fill="#96CD32"/><path d="m327 340.5-.2-2-1.8.201-1.8.099c-1.2.1-2.4.2-3.6.2l-3.6.1-3.6-.1-.1 2 3.7.1 3.7-.1c1.2 0 2.5-.2 3.7-.2l1.9-.099 1.7-.201Z" fill="#41A57D"/><path d="m346.1 336-.7-1.9-3.3 1.1-3.4 1 .5 1.9 3.5-1 3.4-1.1Z" fill="#1423DC"/><path d="m339.2 338.1-.5-2c-3.9 1-7.9 1.8-11.9 2.3l.2 2c4.1-.4 8.2-1.3 12.2-2.3Z" fill="#FFC328"/><path d="m364 327.4-1.1-1.7c-5.5 3.5-11.3 6.3-17.4 8.4l.7 1.9c6.2-2.2 12.2-5.1 17.8-8.6Z" fill="#2382D2"/><path d="m312.2 341 .1-2c-8.8-.4-17.5-2-25.7-4.9l-.7 1.9c8.4 2.9 17.4 4.6 26.3 5Z" fill="#4BC3C3"/><path d="m285.9 336 .7-1.9c-1.2-.4-2.4-.8-3.6-1.3l-3.5-1.5-1.7-.8-1.7-.9-3.4-1.8-1 1.8 3.4 1.8 1.7.9 1.8.8 3.6 1.6c1.2.4 2.5.8 3.7 1.3Z" fill="#1423DC"/><path d="m271.8 329.6 1-1.8c-1.8-1-3.5-2.1-5.2-3.2-.9-.5-1.7-1.1-2.5-1.7l-2.5-1.8-1.2 1.6 2.5 1.8c.8.6 1.7 1.2 2.6 1.8 1.7 1.1 3.4 2.3 5.3 3.3Z" fill="#96CD32"/><path d="m393.4 297.4-1.7-1c-3.6 5.9-7.9 11.4-12.7 16.3-4.8 5-10.3 9.3-16.1 13l1.1 1.7c6-3.8 11.5-8.2 16.5-13.3 4.9-5.1 9.2-10.7 12.9-16.7Z" fill="#1423DC"/><path d="m261.4 322.7 1.2-1.6c-8-6-14.9-13.5-20.4-21.9l-1.7 1.1c5.7 8.6 12.7 16.3 20.9 22.4Z" fill="#4BC3C3"/><path d="m240.5 300.4 1.7-1.1c-.6-1-1.3-2-1.9-3l-1.7-3.1-1.8 1 1.8 3.2c.6 1 1.3 1.9 1.9 3Z" fill="#41A57D"/><path d="m236.8 294.2 1.8-1c-.4-.8-.9-1.5-1.3-2.3l-1.1-2.4c-.7-1.6-1.5-3.1-2.1-4.8-1.2-3.4-3-6.6-5-9.6l-1.7 1.2c2 2.8 3.7 5.9 4.8 9.2.6 1.6 1.4 3.3 2.2 4.9l1.1 2.4c.4.8.9 1.6 1.3 2.4Z" fill="#96CD32"/><path d="m159.4 274.6-1.4-1.4c-1.7 1.7-3.6 3.1-5.6 4.5-2 1.3-4.1 2.5-6.2 3.6l.9 1.8c2.2-1.1 4.4-2.4 6.5-3.7 2-1.5 4-3 5.8-4.8Z" fill="#41A57D"/><path d="m173.9 262.3-.9-1.8c-2.2 1.1-4.2 2.5-6.2 3.9l1.2 1.6c1.9-1.3 3.9-2.6 5.9-3.7Z" fill="#1423DC"/><path d="m168 266.1-1.2-1.6c-1.7 1.3-3.2 2.7-4.7 4.2-.7.8-1.4 1.5-2.1 2.3-.7.8-1.3 1.5-2 2.2l1.4 1.4c.7-.8 1.5-1.5 2.1-2.3.7-.8 1.3-1.5 2-2.2 1.5-1.4 3-2.8 4.5-4Z" fill="#FFC328"/><path d="M192.3 257.6v-2c-6.7.1-13.4 1.9-19.3 5l.9 1.8c5.7-3 12-4.7 18.4-4.8Z" fill="#2382D2"/><path d="m147.1 283.1-.9-1.8c-7.8 3.9-16.4 6.2-25.1 6.8l.1 2c4.5-.3 8.9-1.1 13.3-2.3 4.3-1.1 8.6-2.7 12.6-4.7Z" fill="#4BC3C3"/><path d="m121.2 290.1-.1-2c-5 .4-10.1.1-15-.7l-.3 2c5 .9 10.2 1.2 15.4.7Z" fill="#1423DC"/><path d="m105.7 289.4.3-2c-4-.7-7.9-1.7-11.7-3.1l-.7 1.9c3.9 1.4 8 2.5 12.1 3.2Z" fill="#96CD32"/><path d="m227.3 275.3 1.7-1.2c-8.1-11.8-22.4-19.1-36.7-18.6v2c13.7-.4 27.3 6.5 35 17.8Z" fill="#1423DC"/><path d="M216.9 305.4c.1-.4.4-.6.8-.7l7.1-1.6v-8l-7.1-1.6c-.4-.1-.7-.4-.8-.7-.6-2.1-1.4-4-2.5-5.9-.2-.3-.2-.7 0-1l3.9-6.1-5.7-5.7-6.1 3.9c-.3.2-.7.2-1 0-1.9-1.1-3.8-1.9-5.9-2.5-.4-.1-.6-.4-.7-.8l-1.6-7.1h-8l-1.6 7.1c-.1.4-.4.7-.7.8-2.1.6-4 1.4-5.9 2.5-.3.2-.7.2-1 0l-6.1-3.9-5.7 5.7 3.9 6.1c.2.3.2.7 0 1-1.1 1.9-1.9 3.9-2.5 5.9-.1.4-.4.6-.8.7l-7.1 1.6v8l7.1 1.6c.4.1.7.4.8.7.5 2.1 1.4 4.1 2.5 5.9.2.3.2.7 0 1l-3.9 6.1 5.7 5.7 6.1-3.9c.3-.2.7-.2 1 0 1.9 1.1 3.9 1.9 5.9 2.5.4.1.6.4.7.8l1.6 7.1h8l1.6-7.1c.1-.4.4-.7.7-.8 2.1-.6 4.1-1.4 5.9-2.5.3-.2.7-.2 1 0l6.1 3.9 5.7-5.7-3.9-6.1c-.2-.3-.2-.7 0-1 1.1-1.9 1.9-3.9 2.5-5.9ZM193.3 316c-9.3 0-16.9-7.6-16.9-16.9 0-9.3 7.6-16.9 16.9-16.9 9.3 0 16.9 7.6 16.9 16.9 0 9.3-7.6 16.9-16.9 16.9Z" fill="#FFC328"/><path d="M193.3 282.2c-9.3 0-16.9 7.6-16.9 16.9 0 9.3 7.6 16.9 16.9 16.9 9.3 0 16.9-7.6 16.9-16.9 0-9.3-7.6-16.9-16.9-16.9Zm0 31.8c-8.2 0-14.9-6.7-14.9-14.9s6.7-14.9 14.9-14.9 14.9 6.7 14.9 14.9-6.7 14.9-14.9 14.9Z" fill="#1423DC"/><path d="m225.9 293.3-7.3-1.6c-.5-1.8-1.3-3.6-2.2-5.3l4-6.3c.2-.4.2-.9-.1-1.2l-6.8-6.8c-.3-.3-.8-.4-1.2-.1l-6.3 4c-1.7-.9-3.5-1.7-5.3-2.2l-1.6-7.3c-.1-.5-.5-.8-1-.8h-9.6c-.5 0-.9.3-1 .8l-1.6 7.3c-1.8.5-3.6 1.3-5.3 2.2l-6.3-4c-.4-.2-.9-.2-1.2.1l-6.8 6.8c-.3.3-.4.9-.1 1.2l4 6.3c-.9 1.7-1.7 3.4-2.2 5.3l-7.3 1.6c-.5.1-.8.5-.8 1v9.6c0 .5.3.9.8 1l7.3 1.6c.5 1.8 1.3 3.6 2.2 5.3l-4 6.3c-.2.4-.2.9.1 1.2l6.8 6.8c.3.3.9.4 1.2.1l6.3-4c1.7.9 3.5 1.7 5.3 2.2l1.6 7.3c.1.5.5.8 1 .8h9.6c.5 0 .9-.3 1-.8l1.6-7.3c1.8-.5 3.6-1.3 5.3-2.2l6.3 4c.4.2.9.2 1.2-.1l6.8-6.8c.3-.3.4-.8.1-1.2l-4-6.3c.9-1.7 1.7-3.5 2.2-5.3l7.3-1.6c.5-.1.8-.5.8-1v-9.6c0-.5-.3-.9-.8-1Zm-1.2 9.8-7.1 1.6c-.4.1-.7.4-.8.7-.6 2.1-1.4 4.1-2.5 5.9-.2.3-.2.7 0 1l3.9 6.1-5.7 5.7-6.1-3.9c-.3-.2-.7-.2-1 0-1.9 1.1-3.8 1.9-5.9 2.5-.4.1-.6.4-.7.8l-1.6 7.1h-8l-1.6-7.1c-.1-.4-.4-.7-.7-.8-2.1-.6-4-1.4-5.9-2.5-.3-.2-.7-.2-1 0l-6.1 3.9-5.7-5.7 3.9-6.1c.2-.3.2-.7 0-1-1.1-1.9-1.9-3.8-2.5-5.9-.1-.4-.4-.6-.8-.7l-7.1-1.6v-8l7.1-1.6c.4-.1.7-.4.8-.7.5-2.1 1.4-4.1 2.5-5.9.2-.3.2-.7 0-1l-3.9-6.1 5.7-5.7 6.1 3.9c.3.2.7.2 1 0 1.9-1.1 3.9-1.9 5.9-2.5.4-.1.6-.4.7-.8l1.6-7.1h8l1.6 7.1c.1.4.4.7.7.8 2.1.6 4.1 1.4 5.9 2.5.3.2.7.2 1 0l6.1-3.9 5.7 5.7-3.9 6.1c-.2.3-.2.7 0 1 1.1 1.9 1.9 3.9 2.5 5.9.1.4.4.6.8.7l7.1 1.6v8Z" fill="#1423DC"/><path d="M233.8 180.7c.2-1.4.2-2.8.1-4.2 0-.4.1-.7.4-.9l3.8-2.6-1.8-4.5-4.6.8c-.4.1-.8-.1-1-.4-.8-1.1-1.8-2.1-3-3-.3-.2-.4-.6-.4-1l.9-4.6-4.5-1.9-2.7 3.8c-.2.3-.6.5-1 .4-1.4-.2-2.8-.2-4.2-.1-.4 0-.7-.1-.9-.4l-2.6-3.8-4.5 1.8.8 4.6c.1.4-.1.8-.4 1-1.1.8-2.1 1.8-3 2.9-.2.3-.6.4-1 .4l-4.6-.9-1.9 4.5 3.8 2.7c.3.2.5.6.4 1-.2 1.4-.2 2.9-.1 4.2 0 .4-.1.7-.4 1l-3.8 2.6 1.8 4.5 4.6-.8c.4-.1.7.1 1 .4.8 1.1 1.8 2.2 3 3 .3.2.4.6.4 1l-.9 4.6 4.5 1.9 2.7-3.8c.2-.3.6-.4 1-.4 1.4.2 2.8.2 4.2.1h.1c.3 0 .6.2.8.4l2.6 3.8 4.5-1.8-.8-4.6c-.1-.4.1-.7.4-1 1.1-.8 2.2-1.8 3-3 .2-.3.6-.4 1-.4l4.6.9 1.9-4.5-3.8-2.7c-.3-.3-.5-.6-.4-1Zm-7.5 1.3c-1 2.2-2.8 4-5 4.9-1.1.4-2.2.7-3.4.7-1.2 0-2.4-.2-3.6-.7-2.2-1-4-2.7-4.9-5-.9-2.3-.9-4.8.1-7s2.7-4 5-4.9c2.8-1.1 5.9-.8 8.5.9l.1.1c.1.1.2.1.3.2.2.1.3.2.4.3l.8.7c.8.9 1.5 1.8 1.9 2.9.7 2.1.7 4.6-.2 6.9Z" fill="#fff"/><path d="M227.1 179.4c0 5.5-4.4 9.9-9.9 9.9s-9.9-4.4-9.9-9.9 4.5-9.9 9.9-9.9c2.1 0 4 .6 5.6 1.8-2.2-1.4-4.9-1.8-7.5-.8a8.1 8.1 0 0 0-4.5 10.6 8.1 8.1 0 0 0 10.6 4.5 8.1 8.1 0 0 0 4.5-10.6c-.4-1-1-1.9-1.7-2.6 1.8 1.8 2.9 4.3 2.9 7Z" fill="#DAF1F3" opacity=".9"/><path d="M226.3 175c-.4-1.1-1.1-2.1-1.9-2.9l-.8-.7c-.1-.1-.3-.2-.4-.3-.1-.1-.2-.1-.3-.2l-.1-.1c-2.5-1.7-5.7-2-8.5-.9-2.3.9-4 2.6-5 4.9-1 2.2-1 4.7-.1 7s2.6 4 4.9 5c1.2.5 2.4.7 3.6.7 1.1 0 2.3-.2 3.4-.7 2.3-.9 4.1-2.6 5-4.9 1.1-2.2 1.1-4.7.2-6.9ZM215 185c-1.8-.8-3.1-2.1-3.8-3.9-1.5-3.7.3-7.8 4-9.3.9-.3 1.8-.5 2.7-.5 1.4 0 2.8.4 3.9 1.2l.1.1c.1 0 .1.1.2.1l.1.1c.1.1.2.1.3.2l.7.6c.6.6 1.1 1.4 1.5 2.3.7 1.8.7 3.7-.1 5.5-.8 1.8-2.2 3.1-3.9 3.8-2 .5-3.9.5-5.7-.2Z" fill="#1423DC"/><path d="M235.9 180.4c.1-1.2.1-2.4 0-3.5l4-2.7c.4-.3.5-.8.4-1.2l-2.4-6c-.2-.4-.6-.7-1.1-.6l-4.8.8c-.7-.9-1.6-1.8-2.5-2.5l.9-4.8c.1-.5-.2-.9-.6-1.1l-6-2.6c-.4-.2-.9 0-1.2.3l-2.8 3.9c-1.2-.1-2.4-.1-3.6 0l-2.7-4c-.3-.4-.8-.5-1.2-.4l-6 2.4c-.4.2-.7.6-.6 1.1l.8 4.8c-.9.7-1.8 1.6-2.5 2.5l-4.8-.9c-.5-.1-.9.2-1.1.6l-2.5 6c-.2.4 0 .9.3 1.2l3.9 2.8c-.1 1.2-.2 2.4 0 3.6l-4 2.7c-.4.3-.5.8-.4 1.2l2.4 6c.2.4.6.7 1.1.6l4.8-.8c.7.9 1.6 1.8 2.5 2.5l-.9 4.8c-.1.5.2.9.6 1.1l6 2.6c.4.2.9.1 1.2-.3l2.8-3.9c1.2.1 2.3.1 3.5 0l2.7 4c.2.3.5.4.8.4.1 0 .2 0 .4-.1l6-2.4c.4-.2.7-.6.6-1.1l-.8-4.8c.9-.7 1.8-1.6 2.5-2.5l4.8.9c.5.1.9-.2 1.1-.6l2.6-6c.2-.4.1-.9-.3-1.2l-3.9-2.8Zm.1 8.4-4.6-.9c-.4-.1-.7.1-1 .4-.9 1.1-1.9 2.1-3 3-.3.2-.4.6-.4 1l.8 4.6-4.5 1.8-2.6-3.8c-.2-.3-.5-.4-.8-.4h-.1c-1.4.2-2.8.2-4.2-.1-.4 0-.7.1-1 .4l-2.7 3.8-4.5-1.9.9-4.6c.1-.4-.1-.7-.4-1-1.1-.9-2.1-1.9-3-3-.2-.3-.6-.5-1-.4l-4.6.8-1.8-4.5 3.8-2.6c.3-.2.5-.6.4-1-.2-1.4-.2-2.8.1-4.2.1-.4-.1-.7-.4-1l-3.8-2.7 1.9-4.5 4.6.9c.4.1.7-.1 1-.4.9-1.1 1.9-2.1 3-2.9.3-.2.5-.6.4-1l-.8-4.6 4.5-1.8 2.6 3.8c.2.3.6.5.9.4 1.4-.2 2.9-.1 4.2.1.4.1.7-.1 1-.4l2.7-3.8 4.5 1.9-.9 4.6c-.1.4.1.7.4 1 1.1.9 2.1 1.9 3 3 .2.3.6.4 1 .4l4.6-.8 1.8 4.5-3.8 2.6c-.3.2-.5.6-.4.9.2 1.4.1 2.9-.1 4.2-.1.4.1.7.4 1l3.8 2.7-1.9 4.5Z" fill="#1423DC"/><path d="M372.8 259c-.3-.2-.5-.6-.4-.9.6-4.9.6-10-.1-15 0-.4.1-.7.4-1L387 232l-7.9-18.7-17.3 3.2c-.4.1-.7-.1-1-.4-3.1-4-6.7-7.5-10.6-10.5-.3-.2-.5-.6-.4-1l3-17.3-18.8-7.7-10 14.4c-.2.3-.6.5-1 .4-4.9-.6-10-.6-15 .1-.4.1-.7-.1-1-.4l-10.1-14.3-18.7 7.9 3.2 17.3c.1.4-.1.7-.4 1-4 3.1-7.5 6.7-10.5 10.6-.2.3-.6.4-1 .4l-17.3-3-7.7 18.8 14.5 10c.3.2.5.6.4.9-.6 5-.6 10 .1 15 0 .4-.1.7-.4 1l-14.3 10.1 7.9 18.7 17.3-3.2c.5-.1 1 .2 1.1.7.9 3.1 3.9 6.1 9.1 9.1 6.4 3.7 18.5 9.9 25.5 12.4 4.6 1.6 12.9.5 17.8-.2h.2c.3 0 .6.1.8.4l10.1 14.3 18.7-7.9-3.2-17.3c-.1-.4.1-.8.4-1 3.9-3 7.5-6.6 10.5-10.6.2-.3.6-.4 1-.4l17.3 3L387 269l-14.2-10Zm-27.6 3.7c-3.2 7.8-9.2 13.9-17 17.1-3.9 1.6-8.1 2.5-12.2 2.5-4 0-8.1-.8-11.9-2.4-7.8-3.2-13.9-9.2-17.1-17-3.3-7.8-3.3-16.3-.1-24.1 3.2-7.8 9.2-13.9 17-17.1 7.8-3.3 16.3-3.3 24.1-.1 7.8 3.2 13.9 9.2 17.1 16.9 3.2 7.9 3.2 16.4.1 24.2Z" fill="#96CD32"/><path d="m389.1 267.8-14.6-10.1c.6-4.7.5-9.5-.1-14.3l14.5-10.3c.4-.3.5-.8.3-1.2l-8.5-20.2c-.2-.4-.6-.7-1.1-.6l-17.5 3.2c-3-3.8-6.4-7.2-10.1-10l3-17.5c.1-.5-.2-.9-.6-1.1l-20.3-8.3c-.4-.2-.9 0-1.2.4l-10.1 14.6c-4.7-.6-9.5-.5-14.3.1L298.3 178c-.3-.4-.8-.5-1.2-.4l-20.2 8.5c-.4.2-.7.6-.6 1.1l3.2 17.5c-3.8 3-7.1 6.4-10 10.1l-17.5-3c-.5-.1-.9.2-1.1.6l-8.3 20.3c-.2.4 0 .9.4 1.2l14.6 10.1c-.5 4.7-.5 9.5.1 14.3l-14.5 10.2c-.4.3-.5.8-.4 1.2l8.5 20.2c.2.4.7.7 1.1.6l17.2-3.1c1.3 3.3 4.5 6.4 9.7 9.4 6 3.5 18.4 9.9 25.8 12.5 4.9 1.7 13.1.6 18.3-.1l10.3 14.5c.2.3.5.4.8.4.1 0 .3 0 .4-.1l20.2-8.5c.4-.2.7-.6.6-1.1l-3.2-17.5c3.7-2.9 7.1-6.3 10-10.1l17.5 3c.5.1.9-.2 1.1-.6l8.3-20.3c.2-.4.1-.9-.3-1.1Zm-9.5 19.9-17.3-3c-.4-.1-.7.1-1 .4-3.1 4-6.6 7.6-10.5 10.6-.3.2-.4.6-.4 1l3.2 17.3-18.7 7.9-10.1-14.3c-.2-.3-.5-.4-.8-.4h-.2c-5 .7-13.2 1.8-17.8.2-7-2.4-19.1-8.7-25.5-12.4-5.2-3-8.1-5.9-9.1-9.1-.1-.5-.6-.8-1.1-.7l-17.3 3.2-7.9-18.7 14.3-10.1c.3-.2.5-.6.4-1-.7-5-.7-10-.1-15 0-.4-.1-.7-.4-.9l-14.5-10 7.7-18.8 17.3 3c.4.1.8-.1 1-.4 3-4 6.5-7.5 10.5-10.6.3-.2.4-.6.4-1l-3.2-17.3 18.7-7.9 10.1 14.3c.2.3.6.5 1 .4 5-.7 10-.7 15-.1.4 0 .7-.1 1-.4l10-14.4 18.8 7.7-3 17.3c-.1.4.1.7.4 1 4 3 7.5 6.5 10.6 10.5.2.3.6.4 1 .4l17.3-3.2 7.9 18.7L373 242c-.3.2-.5.6-.4 1 .7 5 .7 10 .1 15-.1.4.1.7.4.9l14.4 10-7.9 18.8Z" fill="#1423DC"/><path d="M328.7 282.8c16.7-8.2 23.6-28.3 15.4-45-8.2-16.7-28.3-23.6-45-15.4-16.7 8.2-23.6 28.3-15.4 45 8.2 16.6 28.3 23.6 45 15.4Zm-15.9-62.5c16.8-1.1 31.4 11.6 32.5 28.4 1.1 16.8-11.6 31.4-28.4 32.5-16.8 1.1-31.4-11.6-32.5-28.4-1.1-16.9 11.6-31.4 28.4-32.5Z" fill="#96CD32"/><path d="M345 238.6c-3.3-7.8-9.3-13.8-17.1-16.9-7.8-3.2-16.4-3.1-24.1.1-7.8 3.3-13.8 9.3-17 17.1-3.2 7.8-3.1 16.3.1 24.1 3.3 7.8 9.3 13.8 17.1 17 3.8 1.6 7.9 2.4 11.9 2.4 4.1 0 8.3-.8 12.2-2.5 7.8-3.3 13.8-9.4 17-17.1 3.2-7.9 3.2-16.4-.1-24.2ZM327.4 278c-7.3 3.1-15.3 3.1-22.6.1-7.3-3-13-8.6-16.1-15.9-3.1-7.3-3.1-15.3-.1-22.6 3-7.3 8.6-13 15.9-16 3.7-1.6 7.5-2.3 11.4-2.3 3.8 0 7.6.7 11.2 2.2 7.3 3 13 8.6 16 15.9 1.5 3.7 2.3 7.6 2.3 11.4 0 3.8-.7 7.5-2.2 11.1-2.9 7.4-8.5 13.1-15.8 16.1ZM314.9 330.5c-.4.1-1 .1-1.6.2.5-.1 1-.1 1.6-.2Z" fill="#1423DC"/><path d="m284.6 330.7-.2-1c-.2 0-.4.1-.6.2-.1.1-.2.2-.2.3 0 .1 0 .1-.1.2V334.3c0 3.8.1 10.3-.1 17.1 0 1.4-.1 2.9-.1 4.3s-.1 2.9-.2 4.3c0 .7-.1 1.4-.1 2.1 0 .4 0 .8-.1 1.1 0 .3 0 .6-.1.9 0 .3 0 .7-.1 1 0 .3 0 .6-.1 1-.2 2.3-.4 4.3-.7 6.1h-61.6V349.2c0-.9 0-1.7-.1-2.6 0-1.7-.1-3.3-.2-4.7 0-.7-.1-1.4-.1-2.1 0-.9-.1-1.6-.2-2.3 0-.2-.1-.3-.2-.5l-.1-.1-.1-.1c-.1-.1-.3-.2-.4-.2-.3-.1-.6 0-.8.2l-.1.1c-.1.1-.1.2-.2.2-.2.4-.3.7-.5 1.1-.3.6-.6 1.3-.8 2-.2.5-.4 1-.6 1.6-.6 1.6-1.2 3.4-1.8 5.1-.3.9-.6 1.8-.8 2.6-.1.4-.3.9-.4 1.3-.3.9-.5 1.8-.8 2.6l-1.2 4.5c0 .2-.1.4-.2.6l-.6 2.4-.3 1.2c-.4 1.5-.7 3-1 4.3-.1.5-.2.9-.3 1.4-.1.3-.1.6-.2.8-.1.2-.1.5-.2.8-.1.4-.1.7-.2 1-.1.6-.2 1.2-.3 1.6h-28.2c.6-7.1 5-48.2 29.2-68.8 1.3-1.2 2.8-2.2 4.2-3.2 1-.7 2-1.3 3-1.9 1.5-.9 3.2-1.7 4.9-2.5 1.1-.5 2.3-1 3.5-1.4 1.4-.5 2.9-1 4.3-1.4.5-.1.9-.3 1.4-.4 1.1-.3 2.1-.6 3.1-.8.7-.2 1.3-.3 1.9-.4.9-.2 1.8-.3 2.6-.4.3 0 .5-.1.8-.1.5 0 1-.1 1.4-.1v-1c.8 0 1.5.1 2 .2.1 0 .2.1.3.1.3.1.8.2 1.4.4 2.9.9 8 2.9 10.4 4.1h.1c.8.4 1.3.7 1.3.9 0 .1 1.2-.5 2.7-1.5 1.4-.8 3-1.9 4.4-2.8 1.5-1 2.7-1.7 2.9-1.9-.1.5-.2 1-.4 1.4.1 0 .1-.1.2-.1 0 0 .1-.1.2-.1.2-.1.3-.2.4-.3 13 .5 20.3 5.8 26.8 10.5 4.8 3.5 9.3 6.8 15.3 7.6 3.5.5 12.5 1 15.7.6l9.1 11.3c-1.5 5.3-9.1 16.6-47.9 10.7Z" fill="#fff"/><path d="M283.5 330.7v1.4-1.4Zm.4-.8c-.1 0-.1.1 0 0Zm9.7-30.4c-.6-.5-1.3-.9-1.9-1.4.7.5 1.3 1 1.9 1.4 2.4 1.7 4.6 3.3 6.9 4.6-2.3-1.2-4.5-2.8-6.9-4.6Zm14.5 7.2c-.3-.1-.7-.1-1-.2.3.1.6.2 1 .2.2 0 .3 0 .5.1-.2 0-.4-.1-.5-.1Zm6 25.9c.4 0 .7-.1 1-.1-.3 0-.6.1-1 .1Zm-106.3 39.7h-28.2 28.2c.1-.4.2-.9.3-1.6-.2.7-.3 1.2-.3 1.6Zm15.8-79.7-3 1.2 3-1.2c.6-.2 1.3-.4 2-.7-.7.3-1.3.5-2 .7Zm41.8-4h-.1c-.1 0-.2 0-.3.1 0 0-.1.1-.2.1 0 0-.2.1-.4.3-.1.1-.2.1-.3.2-.2.1-.5.3-.8.5-.3.2-.7.4-1 .7-.2.1-.5.3-.7.4-.2.1-.4.3-.6.4-.2.1-.4.3-.6.4-1.1.7-2.1 1.3-2.9 1.8h-.1c-.3.2-.5.3-.7.4-.1 0-.1.1-.2.1-.1.1-.3.2-.4.2-.1.1-.2.2-.4.2-.1.1-.2.1-.3.2-.4-.3-.9-.6-1.4-.9-.3-.1-.6-.3-.9-.4-.5-.2-1-.5-1.5-.7-.2-.1-.3-.2-.5-.2-.4-.1-.7-.3-1.1-.4-.4-.2-.9-.3-1.3-.5-.1-.1-.3-.1-.4-.2-.9-.3-1.8-.7-2.6-.9-.4-.2-.8-.3-1.2-.4-.1-.1-.3-.1-.4-.1-.2-.1-.5-.2-.7-.2-.6-.2-1-.3-1-.3-.2-.1-.4-.1-.6-.1-.6-.1-1.3-.2-2-.2v2c.8 0 1.5.1 2.1.2.3.1.6.2 1 .3.5.2 1 .4 1.6.6l.9.3c.5.2 1 .4 1.5.5.3.1.7.2 1 .4.7.2 1.3.5 1.9.7.5.2.9.4 1.3.6.4.2.8.4 1.2.5.1.1.2.1.4.2.3.2.6.3.9.4.2.1.3.2.4.2.1.1.2.1.3.2.1.1.2.3.3.4.1.1.2.1.2.1h.4c.1 0 .1 0 .2-.1.2-.1.6-.2 1.1-.5.2-.1.5-.3.8-.4.2-.1.5-.3.8-.5.2-.1.5-.3.7-.4.2-.1.4-.2.6-.4.7-.5 1.5-.9 2.2-1.4.2-.1.4-.2.6-.4.3-.2.7-.4 1-.6.4-.2.8-.5 1.1-.7.1-.1.2-.1.3-.2l.1-.1.1-.1c.2-.5.3-.9.4-1.4.2-.2.3-.5.2-.9Zm13 83.7h-57.8 59.7-1.9Zm1.9 0h1.9-1.9Zm-62.3-35c-.2.4-.3.7-.5 1.1.2-.4.3-.7.5-1.1ZM255.4 243c-3.3.6-6.5 1-8.9 1.2.1 0 7.2-.9 8.9-1.2Z" fill="#1423DC"/><path d="M255.4 243c-3.3.6-6.5 1-8.9 1.2.1 0 7.2-.9 8.9-1.2ZM270.4 270.1c0 2.3-1 5.8-4.2 8.1-2.4 1.8-6.8 3.5-13.9 1.3-.5-.2-1.1.1-1.2.7-.2.5.1 1.1.7 1.2 2.7.8 5 1.1 7 1.1 1.7 0 3.1-.2 4.4-.6l.4 6.2c.1 2.9-1.9 4.6-3.6 5.4-4.2 2.1-11.7 1.9-18.1-2.7l.2-21.8.6-.3c.5-.2.7-.8.5-1.3-.2-.5-.8-.7-1.3-.5-3.1 1.5-6 1.7-8.1.5-1.6-.9-2.7-2.6-2.8-4.5-.2-2.7.2-7.2 5-7.6 4-.3 5.9 3 5.9 3.2.2.4.6.6 1 .5.4-.1.8-.3.9-.8v-.1s.6-2.2.8-4.9v-.1c.3-3.2.1-5.8-.1-7.3 9.3 1.9 17.9.2 24-1.8.1.9.2 2.4.4 4.1-1.3-.4-3.3-.6-5 .9-.4.4-.5 1-.1 1.4.2.2.5.3.8.3.2 0 .5-.1.7-.2 1.4-1.2 3.2-.5 3.9-.2.3 7 1.2 16.3 1.2 19.8Z" fill="#fff"/><path d="M250 246h.5c-.1.1-.3 0-.5 0Z" fill="#1423DC"/><path d="M277.4 235.6c-.5-3.8-2.5-6.9-5.8-8.8-3.7-2-8.4-2.1-12.8-.2-1.4-1-5.8-3.9-10-3.6-4.7.4-9.1 3-13.1 7.8-1.2.1-3.2.7-4 1-2 1-3.7 2.4-4.9 4.2-3.7 5.5-2.6 12.7 3.3 20.6-1 1.6-1.4 3.8-1.2 6.4.2 2.5 1.6 4.8 3.8 6.1 1.2.7 2.7 1.1 4.2 1.1 1 0 2-.2 3.1-.5l-.2 19.2v2.3c0 .3.2.6.4.8.2.1.3.2.5.4 4.2 3 9 4.3 13.1 4.3.4 0 .8 0 1.2-.1h.6c1.9-.2 3.7-.7 5.1-1.4 2-1 3.4-2.5 4.1-4.3.2-.5.3-.9.4-1.4.1-.3.1-.7.1-1v-.5l-.5-6.8c1-.4 1.8-.9 2.4-1.4 3.1-2.3 5.1-6.2 5-9.8 0-2.1-.3-6.2-.7-10.6 1.1-.9 4.2-3.9 4.4-7.3.1-2.7-1.3-4.4-2.4-5.3 2.1-1.8 3.5-3.9 3.8-7.3v-.1c.4-1.1.3-2.4.1-3.8Zm-33.9 9.8c0 .1 0 .1 0 0Zm22.7 32.8c-2.4 1.8-6.8 3.5-13.9 1.3-.5-.2-1.1.1-1.2.7-.2.5.1 1.1.7 1.2 2.7.8 5 1.1 7 1.1 1.7 0 3.1-.2 4.4-.6l.4 6.2c0 .4 0 .8-.1 1.1 0 .2-.1.3-.1.5v.1c0 .1-.1.2-.1.3 0 .1 0 .1-.1.2v.1c0 .1 0 .1-.1.2 0 0 0 .1-.1.1-.1.1-.1.2-.2.4 0 .1-.1.1-.1.1-.1.1-.1.2-.2.3-.1.1-.2.2-.3.4l-.3.3-.3.3-.3.3c-.1.1-.2.2-.3.2-.1.1-.2.2-.4.3-.1.1-.2.1-.3.2-.1.1-.2.1-.3.2-.6.3-1.2.5-1.8.7-.6.2-1.2.3-1.9.4h-.1c-.3 0-.6.1-1 .1h-2.7c-.2 0-.5 0-.7-.1h-.4c-.3 0-.6-.1-.9-.2h-.1c-.3-.1-.7-.1-1-.2-.3-.1-.7-.2-1-.3-.3-.1-.7-.2-1-.3 0 0-.1 0-.1-.1l-.9-.3c-.1 0-.1 0-.2-.1-.3-.1-.6-.3-.9-.4-.3-.2-.6-.3-.9-.5 0 0-.1 0-.1-.1-.3-.2-.7-.4-1-.6-.1-.1-.2-.1-.3-.2-.2-.2-.5-.3-.7-.5v-1.6l.2-20.1.6-.3c.5-.2.7-.8.5-1.3-.2-.5-.8-.7-1.3-.5-3.1 1.5-6 1.7-8.1.5-1.6-.9-2.7-2.6-2.8-4.5-.2-2.7.2-7.2 5-7.6 4-.3 5.9 3 5.9 3.2.2.4.6.6 1 .5.4-.1.8-.3.9-.8v-.1c.4-1.8.7-3.4.8-4.9v-.1c.3-3.2.1-5.8-.1-7.3 9.3 1.9 17.9.2 24-1.8.1.9.2 2.4.4 4.1-1.3-.4-3.3-.6-5 .9-.4.4-.5 1-.1 1.4.2.2.5.3.8.3.2 0 .5-.1.7-.2 1.4-1.2 3.2-.5 3.9-.2.6 6.7 1.4 16 1.5 19.5-.6 2.3-1.7 5.8-4.9 8.1Zm9.4-39.3c-2.3 1.3-13 6.8-25.9 5.9-.4 0-.8-.1-1.2-.1-.2 0-.5-.1-.7-.1h-.5c-.4-.1-.7-.2-.7-.2 2.3-.3 5.5-.7 8.9-1.2H256.1c.3-.1.7-.1 1-.2.1 0 .2-.1.4-.1s.3-.1.4-.1c.1 0 .3-.1.4-.1 4.1-.9 11.8-2.9 14.2-6.3.4-.6.6-1.4.7-2.1.2-1.6-.4-3.1-1-4.6.1.1.3.2.4.3 1.7 1.5 2.7 3.6 3 6v2.9Z" fill="#1423DC"/><path d="M253.3 254.4c.5-.1.8.1 1 1.8.2 1.9-.2 2.3-.7 2.3-.4 0-.9-.6-.9-1.9 0-1.4 0-2.1.6-2.2ZM266.3 253.7c.5-.1.8.1 1.1 1.8.3 1.9-.2 2.3-.6 2.3-.4 0-.9-.5-1-1.9-.1-1.4-.1-2 .5-2.2ZM235.8 265.9c-.3 0-.7-.2-.9-.5-.3-.5-.1-1.1.4-1.4l2.7-1.6-2.2-3.2c-.3-.5-.2-1.1.2-1.4.5-.3 1.1-.2 1.4.2l2.8 4.1c.2.2.2.5.2.8-.1.3-.2.5-.5.6l-3.6 2.1c-.2.2-.3.3-.5.3ZM248.9 252.6c-.2 0-.5-.1-.7-.3-.4-.4-.4-1-.1-1.4 2.7-2.9 6.1-2.1 7.6-1.3.5.3.6.9.4 1.4-.3.5-.9.6-1.4.4-.1-.1-2.9-1.6-5.1.9-.1.2-.4.3-.7.3Z" fill="#1423DC"/><path d="M275.6 238.9c-2.3 1.3-13 6.8-25.9 5.9-.4 0-.8-.1-1.2-.1-.2 0-.5-.1-.7-.1h-.5c-.4-.1-.7-.2-.7-.2 2.3-.3 5.5-.7 8.9-1.2H256.1c.3-.1.7-.1 1-.2.1 0 .2-.1.4-.1s.3-.1.4-.1c.1 0 .3-.1.4-.1 4.1-.9 11.8-2.9 14.2-6.3.4-.6.6-1.4.7-2.1.2-1.6-.4-3.1-1-4.6.1.1.3.2.4.3 1.7 1.5 2.7 3.6 3 6v2.9Z" fill="#fff"/><path d="M263.4 266.3c-.6 0-1-.4-1-1s.4-1 1-1 1.3-.1 1.6-.5c.2-.3.3-.7.1-1.2-.1-.5-.7-1.6-1.3-2.6-1.1-1.9-2.4-4.2-2.7-6.2-.1-.5.3-1 .9-1.1.5-.1 1.1.3 1.1.9.2 1.6 1.5 3.7 2.4 5.4.8 1.4 1.4 2.4 1.6 3.2.3 1.5-.1 2.4-.6 2.9-.8 1-2.3 1.2-3.1 1.2ZM261.3 273.1c-2.9 0-5.2-1.7-6.3-2.9-.4-.4-.3-1.1.1-1.4.4-.4 1-.3 1.4.1.2.2 3.5 4 8 1.3.5-.3 1.1-.1 1.4.3.3.5.1 1.1-.3 1.4-1.5.9-2.9 1.2-4.3 1.2ZM208.9 374.2c-.1 0-.2.1-.2.1h-.1c.1 0 .2 0 .3-.1Z" fill="#1423DC"/><path d="M243.5 290.8c-.2-.2-.6-.3-1.4-.4h-.3c-.6-.1-1.2-.1-2-.1v.8c-.4 0-.9 0-1.4.1-.3 0-.5.1-.8.1-.8.1-1.7.2-2.6.4-.6.1-1.3.2-1.9.4-1 .2-2 .5-3.1.8-.5.1-.9.3-1.4.4-1.4.4-2.8.9-4.3 1.4-1.2.4-2.3.9-3.5 1.4-1.7.8-3.3 1.6-4.9 2.5-1 .6-2 1.2-3 1.9-1.5 1-2.9 2.1-4.2 3.2-24.2 20.6-28.6 61.6-29.2 68.8h9.3c.6-19.4 9.9-60.4 34.9-73.7 4.2-2.3 12.6-4.4 17-6 .9-.3 1.7-.6 2.2-.9.6-.6.9-.9.6-1.1Z" fill="#DAF1F3"/><path d="m333.9 320.8-9.1-13.2c-.3-.4-.8-.5-1.2-.3 0 0-.1 0-.2.1-.1 0-.3.1-.6.1h-.4c-1.2.1-3 .1-5.1 0-.5 0-1 0-1.5-.1h-.1c-.4 0-.9 0-1.3-.1-.9-.1-1.7-.1-2.6-.2h-.5c-.4 0-.7-.1-1-.1-.6-.1-1.1-.1-1.6-.2-.2 0-.3 0-.5-.1-.3-.1-.7-.1-1-.2-.7-.1-1.3-.3-2-.5-1.6-.5-3.1-1.1-4.5-1.9-2.3-1.3-4.5-2.9-6.9-4.6-.6-.5-1.3-.9-1.9-1.4-.4-.3-.9-.6-1.3-.9-.7-.5-1.4-.9-2.1-1.4-5.6-3.6-12.5-6.8-22.9-7.2 0 .4 0 .7-.1 1-.1.5-.2 1-.4 1.4.1 0 .1-.1.2-.1 0 0 .1-.1.2-.1.2-.1.3-.2.4-.3 13 .5 20.3 5.8 26.8 10.5 4.8 3.5 9.3 6.8 15.3 7.6 3.5.5 12.5 1 15.7.6l.9 1.3 7.5 10.9c-.1.3-.3.5-.4.8-.1.1-.2.2-.2.4-2.6 3.7-8.8 6.8-16.3 7.9-.4.1-1 .1-1.6.2-7.2.7-18.4.2-26.9-.8-.4 0-.8-.1-1.1-.1-.2 0-.3 0-.5-.1h-.2c-.2 0-.4.1-.6.2-.1.1-.2.2-.2.3 0 .1 0 .1-.1.2V334.3c0 3.8.1 10.3-.1 17.1 0 1.4-.1 2.9-.1 4.3s-.1 2.9-.2 4.3c0 .7-.1 1.4-.1 2.1 0 .4 0 .8-.1 1.1 0 .3 0 .6-.1.9 0 .3 0 .7-.1 1 0 .3 0 .6-.1 1-.2 2.3-.4 4.3-.7 6.1h-61.6V349.2c0-.9 0-1.7-.1-2.6 0-1.7-.1-3.3-.2-4.7 0-.7-.1-1.4-.1-2.1 0-.9-.1-1.6-.2-2.3 0-.2-.1-.3-.2-.5l-.1-.1-.1-.1c-.1-.1-.3-.2-.4-.2-.3-.1-.6 0-.8.2l-.1.1c-.1.1-.1.2-.2.2-.2.4-.3.7-.5 1.1-.3.6-.6 1.3-.8 2-.2.5-.4 1-.6 1.6-.6 1.6-1.2 3.4-1.8 5.1-.3.9-.6 1.8-.8 2.6-.1.4-.3.9-.4 1.3-.3.9-.5 1.8-.8 2.6l-1.2 4.5c0 .2-.1.4-.2.6l-.6 2.4-.3 1.2c-.4 1.5-.7 3-1 4.3-.1.5-.2.9-.3 1.4-.1.3-.1.6-.2.8-.1.2-.1.5-.2.8-.1.4-.1.7-.2 1-.1.6-.2 1.2-.3 1.6H153.5c-.5 0-1 .5-1 1 0 .6.5 1 1 1h55.6-.1c.1 0 .2 0 .3-.1-.1 0-.2.1-.2.1H329c.5 0 1-.4 1-1 0-.5-.5-1-1-1h-44.8c.5-3.4.8-7.7 1-12.3 0-.6 0-1.2.1-1.8V355c0-1.2.1-2.5.1-3.7V331.6c.2 0 .4 0 .6.1 7.2.8 19.1 1.6 27.4.8.2 0 .4 0 .6-.1.3 0 .7-.1 1-.1h.1c8.3-1.2 15-4.6 17.8-9 .1-.1.2-.3.3-.4.1-.1.2-.3.2-.4 0 0 0-.1.1-.1.1-.2.2-.5.4-.8.2-.2.2-.5 0-.8Zm-115.3 51.5h-8.8v.1-.1c0-.1.1-.3.1-.4 0-.2.1-.4.1-.7.1-.3.1-.6.2-.9 1.2-5.9 4.1-18.7 7.9-28.3.5 9.7.5 26.1.5 30.3Z" fill="#1423DC"/><path d="M285.5 331.8v1.1c.1-.4.1-.8 0-1.1Zm-75.7 40.5s0 .1 0 0 .1-.3.1-.4c0 .1-.1.3-.1.4Zm-1.2 2c.2 0 .3 0 .3-.1-.1.1-.2.1-.3.1Zm15.7-79.8c-1.2.4-2.3.9-3.5 1.4 1.2-.5 2.3-1 3.5-1.4 1.4-.5 2.9-.9 4.3-1.4-1.4.5-2.9.9-4.3 1.4Zm5.7-1.7c1.1-.3 2.1-.5 3.1-.8-1 .2-2.1.5-3.1.8Zm3.1-.8c.7-.1 1.3-.3 1.9-.4-.6.1-1.2.2-1.9.4Zm32.4-3.4h-.2c-.1 0-.2 0-.3.1 0 0-.1.1-.2.1 0 0-.2.1-.4.3-.1.1-.2.1-.3.2-.2.1-.5.3-.8.5-.3.2-.7.4-1 .7-.2.1-.5.3-.7.4-.2.1-.4.3-.6.4-.2.1-.4.3-.6.4-1.1.7-2.1 1.3-2.9 1.8h-.1c-.3.2-.5.3-.7.4-.1 0-.1.1-.2.1-.1.1-.3.2-.4.2-.1.1-.2.2-.4.2-.1.1-.2.1-.3.2-.4-.3-.9-.6-1.4-.9-.3-.1-.6-.3-.9-.4-.5-.2-1-.5-1.5-.7-.2-.1-.3-.2-.5-.2-.4-.2-.7-.3-1.1-.4-.4-.2-.9-.3-1.3-.5-.1-.1-.3-.1-.4-.2-.9-.3-1.8-.7-2.6-.9-.4-.2-.8-.3-1.2-.4-.1-.1-.3-.1-.4-.1-.2-.1-.5-.2-.7-.2-.6-.2-1-.3-1-.3-.2-.1-.4-.1-.6-.1-.6-.1-1.3-.2-2-.2v2c.8 0 1.5.1 2.1.2.3.1.6.2 1 .3.5.2 1 .4 1.6.6l.9.3c.5.2 1 .4 1.5.5.3.1.7.2 1 .4.7.2 1.3.5 1.9.7.5.2.9.4 1.3.6.4.2.8.4 1.2.5.1.1.2.1.4.2.3.2.6.3.9.4.2.1.3.2.4.2.1.1.2.1.3.2.1.1.2.3.3.4.1.1.2.1.2.1h.4c.1 0 .2 0 .3-.1h.1c.2-.1.5-.2.9-.5.2-.1.5-.3.8-.4.2-.1.5-.3.8-.5.2-.1.5-.3.7-.4.2-.1.4-.2.6-.4.7-.5 1.5-.9 2.2-1.4.2-.1.4-.2.6-.4.3-.2.7-.4 1-.6.4-.2.8-.5 1.1-.7.1-.1.2-.1.3-.2l.1-.1.1-.1c.1 0 .1-.1.2-.1-.1 0-.1.1-.2.1.2-.5.3-.9.4-1.4.2-.2.3-.5.3-.9Zm-9.6 6.5c0-.1 0-.1 0 0Zm57.3 35.6c.7-.1 1.2-.1 1.6-.2-.5.1-1 .1-1.6.2Zm-34.8 41.6h-57.8 59.7-1.9Zm2.3 2h2.4-2.4Zm3.5-2c.5-3.4.8-7.7 1-12.3-.2 4.6-.5 8.9-1 12.3Zm-64-30.3c.1 1.4.1 3 .2 4.7-.1-1.6-.2-3.2-.2-4.7Zm-.3-4.4c0-.2-.1-.3-.2-.5.1.2.2.4.2.5 0 .7.1 1.5.1 2.3 0-.8 0-1.6-.1-2.3Zm-.8-.9c.2 0 .3.1.4.2-.1-.1-.2-.1-.4-.2Zm36.5-39.9c-.1 0-.1 0-.2.1.1 0 .2 0 .3-.1h-.1Z" fill="#1423DC"/><path d="M239.8 289.1v2c-.4 0-.9 0-1.4.1-.3 0-.5.1-.8.1-.8.1-1.7.2-2.6.4-.6.1-1.3.2-1.9.4-1 .2-2 .5-3.1.8-.5.1-.9.3-1.4.4-1.4.4-2.8.9-4.3 1.4-1.2.4-2.3.9-3.5 1.4-1.7.8-3.3 1.6-4.9 2.5-1 .6-2 1.2-3 1.9-1.5 1-2.9 2.1-4.2 3.2-24.2 20.6-28.6 61.6-29.2 68.8h-2c.3-3.8 1.7-18.1 7-33.7 4.8-14.2 11.5-25.6 19.9-33.8 1.3-1.3 2.7-2.5 4.1-3.6 2-1.6 4.1-3.1 6.3-4.4 1.9-1.1 3.8-2.1 5.8-2.9l3-1.2c.6-.2 1.3-.4 2-.7l2.1-.6c1.4-.4 2.9-.8 4.3-1.1.7-.2 1.4-.3 2.1-.4 2.1-.8 4.1-1 5.7-1Z" fill="#1423DC"/><path d="m254.7 295.5-13.2 5.7-2.8-11.3 2.4-2.8 13.6 8.4ZM268.4 298.3l-9.9-3.1 6.2-7.8 2 2.8 1.7 8.1Z" fill="#fff"/><path d="m270.7 299.6-2.1-10.1c0-.1-.1-.3-.2-.4l-2.9-4c-.2-.3-.5-.4-.8-.4-.3 0-.6.1-.8.4l-7.3 9.2-15.2-9.5c-.4-.3-1-.2-1.3.2l-3.3 3.9c-.2.2-.3.6-.2.9l3.2 13c.1.3.3.5.5.7.1.1.3.1.4.1.1 0 .3 0 .4-.1l15.7-6.8 12.5 4h.3c.2 0 .5-.1.7-.2.3-.2.4-.5.4-.9Zm-29.2 1.6-2.8-11.4 2.4-2.8 13.6 8.5-13.2 5.7Zm17-6 6.2-7.8 2 2.8 1.7 8.2-9.9-3.2Z" fill="#1423DC"/><path d="M312 277.2c-1 .3-2.5.9-4.9 2.1-.7.4-1.4 1-2 1.6-1.4 1.3-1.7 1.5-2.3 1 0 0-.2-.3-.1-1.5.2-1.5 2.3-3.8 5.7-3.9 1.4 0 2.8.3 3.6.7Z" fill="#fff"/><path d="M314.8 277.3c-.4-2.1-4.5-2.8-6.5-2.8-4.1.1-7.3 3-7.6 5.6-.2 1.6.1 2.8.9 3.4.6.5 1.2.6 1.7.6 1.3 0 2.4-1.1 3.2-1.8.5-.5 1-1 1.5-1.2 2.8-1.4 4.8-2.3 5.8-2.3.1 0 .6 0 .9-.4.2-.3.2-.8.1-1.1Zm-9.6 3.6c-1.4 1.3-1.7 1.5-2.3 1 0 0-.2-.3-.1-1.5.2-1.5 2.3-3.8 5.7-3.9 1.4 0 2.8.3 3.6.6-1 .3-2.5.9-4.9 2.1-.8.5-1.4 1.1-2 1.7Z" fill="#1423DC"/><path d="M315.7 277c-1 .4-2.7 1.2-5.5 3-.9.6-1.5 1.6-2 2.5-1.1 1.9-1.4 2-2.1 1.6-.7-.4-.5-1.9-.2-2.7.6-2 2.6-5.1 5.9-5.3 1.6-.1 3.2.4 3.9.9Z" fill="#fff"/><path d="M318.2 277.4v-.1c-.3-2.3-4-3.3-6.5-3.1-4.1.3-6.8 3.7-7.7 6.8-.7 2.4-.3 4.2 1.2 5 .6.3 1.1.4 1.5.4 1.6 0 2.6-1.7 3.3-2.8.5-.8.9-1.5 1.4-1.9 2.8-1.8 4.9-2.9 5.9-3 .1 0 .5-.1.8-.4.2-.4.1-.8.1-.9Zm-10 5.2c-1.1 1.9-1.4 2-2.1 1.6-.7-.4-.5-1.9-.2-2.7.6-2 2.6-5.1 5.9-5.3 1.6-.1 3.2.4 4 .9-1 .4-2.7 1.2-5.5 3-1 .5-1.6 1.5-2.1 2.5Z" fill="#1423DC"/><path d="M320 277.6c-1 .4-2.7 1.3-5.8 3.6-.9.6-1.5 1.7-2 2.7-.5.9-1 1.9-1.5 2-.2.1-.5-.1-.7-.2-.1-.1-.6-.6-.2-2.9v-.2c.2-1.3 1-2.8 2-3.9 1.1-1.2 2.5-2 4.1-2.2h.6c1.5 0 3 .5 3.5 1.1Z" fill="#fff"/><path d="M322.3 278v-.2c-.2-2.4-4-3.6-6.5-3.3-4.2.4-7.3 4.4-7.9 7.8v.1c-.2.9-.7 3.7 1 4.9.6.4 1.2.6 1.7.6.2 0 .4 0 .5-.1 1.3-.3 2.1-1.7 2.8-3 .5-.8.9-1.7 1.5-2.1 4-3 5.5-3.4 5.9-3.5.2 0 .5-.1.8-.4.3-.3.2-.7.2-.8Zm-10.1 5.9c-.5.9-1 1.9-1.5 2-.2.1-.5-.1-.7-.2-.1-.1-.6-.6-.2-2.9v-.2c.2-1.3 1-2.8 2-3.9 1.1-1.2 2.5-2 4.1-2.2h.6c1.5 0 3 .6 3.5 1.1-1 .4-2.7 1.3-5.8 3.6-.9.6-1.5 1.7-2 2.7Z" fill="#1423DC"/><path d="M323.9 278.1c-1.2.3-2.8.9-4.6 1.9-.9.5-1.5 1.3-1.9 2.1-.9 1.4-1.2 1.7-2.4 1.2-.4-.2-.3-1.4-.1-2 .5-1.6 2.4-4 5.7-4.1 1.1-.1 2.3.4 3.3.9Z" fill="#fff"/><path d="M327.2 278.8c-.4-1.8-4-3.6-6.5-3.6h-.1c-4 .1-6.8 2.9-7.5 5.5-.4 1.2-.6 3.6 1.2 4.4.7.3 1.2.4 1.8.4 1.7 0 2.6-1.4 3.2-2.3.4-.6.8-1.2 1.2-1.4 3.9-2 5.2-1.9 5.4-1.8.3.3.8.3 1.2.1.1-.3.3-.8.1-1.3Zm-12.2 4.4c-.4-.2-.3-1.4-.1-2 .5-1.6 2.4-4 5.7-4.1 1.1 0 2.4.4 3.3.9-1.2.3-2.8.9-4.6 1.9-.9.5-1.5 1.3-1.9 2.1-.9 1.4-1.2 1.8-2.4 1.2Z" fill="#1423DC"/><path d="m284.4 329.7-.4-4.1s12.4 2.1 21.2 1.2c1.6-.2 12.3-.8 16.9-7.2.5-.7 2.8-3.6 2.3-9 1.3 1.9 7.5 10.9 7.5 10.9s-2.8 6.9-17.1 9c-3.9.5-11.7 1.1-30.4-.8Z" fill="#DAF1F3"/></svg>