<svg width="67" height="67" fill="none" xmlns="http://www.w3.org/2000/svg"><path d="M50.072 15.024H17.333c-.61 0-1.09.483-1.09 1.097v26.315c0 .614.48 1.097 1.09 1.097h12.005V41.34H18.425V17.217H48.98V41.34H36.977c-.284 0-.568.11-.764.329l-8.73 8.772 1.55 1.557 8.402-8.443h12.637c.611 0 1.091-.483 1.091-1.097V16.121c0-.614-.48-1.097-1.09-1.097Z" fill="#1423DC"/><path d="M33.593 22.09H28.83v2.734h4.287c1.346 0 2.009.497 2.009 1.367 0 2.07-3.438.87-3.438 4.908v.497h1.947v-.31c0-2.734 4.473-1.119 4.473-5.323 0-2.588-1.843-3.872-4.515-3.872ZM31.13 33.48v3.066h3.065V33.48h-3.065Z" fill="#1423DC"/></svg>