<svg aria-hidden="true" xmlns="http://www.w3.org/2000/svg" viewBox="0 0 26 25"><path d="M25.85,18.15c.16,.16,.19,.4,.08,.6l-2.5,4.5c-.12,.21-.37,.31-.6,.23l-4.21-1.4-2.78,2.78c-.09,.09-.22,.15-.35,.15-.04,0-.08,0-.12-.01l-10.5-2.5c-.15-.04-.27-.14-.34-.27s-.06-.3,0-.44l2.45-4.89v-2.88h1v3c0,.08-.02,.15-.05,.22l-2.22,4.44,9.61,2.29,2.8-2.8c.13-.13,.33-.18,.51-.12l4.11,1.37,2.12-3.81-4.73-4.73,.71-.71,5,5Zm-.18-12.62l-5.41-1.97L16.33,.12c-.09-.08-.21-.12-.33-.12h-2c-.1,0-.2,.03-.28,.08l-2.87,1.92h-3.35c-.28,0-.5,.22-.5,.5v2.5H2c-.19,0-.36,.11-.45,.28L.05,8.28c-.11,.23-.04,.5,.17,.64l4.5,3c.08,.05,.18,.08,.28,.08h3v-1h-2.85L1.14,8.33l1.16-2.33H7.5c.28,0,.5-.22,.5-.5V3h3c.1,0,.2-.03,.28-.08l2.87-1.92h1.66l3.86,3.38s.1,.07,.16,.09l5.17,1.88v2.94l-2.35,2.35,.71,.71,2.5-2.5c.09-.09,.15-.22,.15-.35v-3.5c0-.21-.13-.4-.33-.47Zm-11.67,.47v1h1v-1h-1Zm5,3h-1v1h1v-1Zm-8,10h1v-1h-1v1Zm6-3v1h1v-1h-1Zm-5-4h-1v.94h1v-.94Z" fill="#1423dc"/></svg>