<svg aria-hidden="true" width="499" height="499" fill="none" xmlns="http://www.w3.org/2000/svg"><path d="M258.1 107c-4.3-7.1-11.1-12.1-19.1-14.2-8.1-2-16.4-.8-23.6 3.5l-5.3 3.2c-13.6-6.1-29.3-4.9-41.9 3.1-12.7 8.2-20.3 22.1-20.3 37.2V393h-22.2c-7.3 0-13.2 5.9-13.2 13.3 0 .5.4 1 1 1h70.9c.5 0 1-.5 1-1 0-7.3-6-13.3-13.3-13.3H150V139.9c0-14.4 7.2-27.7 19.4-35.5 11.6-7.5 26-8.8 38.7-3.6l-2.4 1.4c-14.7 8.8-19.5 28-10.6 42.7.1.2.4.4.6.5h.2c.2 0 .4 0 .5-.1l19.4-11.7c3 4.5 8.1 7 13.2 7 2.8 0 5.6-.7 8.2-2.3 3.7-2.2 6.2-5.7 7.3-9.8 1-3.9.5-7.9-1.4-11.3l14.8-8.9c.4-.2.5-.8.2-1.3ZM114.5 405.4c.5-5.7 5.3-10.3 11.2-10.3h46.4c5.9 0 10.7 4.5 11.2 10.3h-68.8Zm128-277.3c-.9 3.6-3.1 6.7-6.3 8.6-6.4 3.8-14.5 2-18.7-4.1l23.9-14.4c1.5 3.1 2 6.6 1.1 9.9Z" fill="#1423DC"/><path d="M150 393.1V139.9c0-14.4 7.2-27.7 19.4-35.5 11.6-7.5 26-8.8 38.7-3.6l2.1-1.3c-13.6-6.1-29.3-4.9-41.9 3.1-12.7 8.2-20.3 22.1-20.3 37.2V393h2v.1Z" fill="#1423DC"/><path d="M205.5 285.1c0-38.4 31.1-67.8 69.5-67.8h22.6c38.4 0 69.5 29.4 69.5 67.8l-23.5 63.4H226.9l-21.4-63.4Z" fill="#fff"/><path d="M383.4 302.2c0 1.4-.2 2.7-.6 4.1L366 364.7c-.5 1.7-1.3 3.3-2.3 4.8-3.3 4.8-9 7.7-15.1 7.7H219.5c-5.6-.2-10.9-2.8-14.1-7.1-.2-.2-.3-.4-.4-.6-1-1.5-1.8-3.1-2.3-4.8l-16.9-58.5c-1.1-3.9-.6-7.9 1.4-11.4 2.2-3.8 5.8-6.5 10.2-7.6 1.4-.3 2.8-.5 4.2-.5 7 0 13.3 4.2 15.5 10.4l12 42.4c.1.4.5.7 1 .7h108.5c.4 0 .8-.3 1-.7l12-42.3c2-5.5 7-9.5 13.1-10.3 1.2-.2 2.4-.2 3.6-.1 1 .1 2 .2 2.9.5 7.2 1.7 12.2 7.9 12.2 14.9Z" fill="#fff"/><path d="M383.4 302.2c0 1.4-.2 2.7-.6 4.1L366 364.7c-.5 1.7-1.3 3.3-2.3 4.8-3.3 4.8-9 7.7-15.1 7.7H219.5c-5.6-.2-10.9-2.8-14.1-7.1h136.5c7.8 0 14.8-5 17.3-12.3 6-17.3 16.2-47.6 17.6-57.1 1.3-8.9-4.4-12.5-8.5-13.9 1 .1 2 .2 2.9.5 7.2 1.7 12.2 7.9 12.2 14.9Z" fill="#D5F4F3"/><path d="M356 288.2c-2.9 2.1-5.1 5-6.4 8.4l-5 17.8-14-9.5 2.4-3.5 7.1-5.7c6.5-5.2 7.1-13.8 5.6-22-2.6-13.6-6-33.3-18.7-41.1 13 5.2 21.8 14.3 26.8 42 .5 3.7 1.9 9.9 2.2 13.6Z" fill="#D5F4F3"/><path d="m230.3 339.3-11.3-38 25.1-5.9s-2.8-6.5-3.7-10c-.9-3.5-2.4-16.7 2.7-30.2s7.8-21.9 18-25.3c10.2-3.4 13.8-4.9 18.9-4.4.2 2.7.8 9.7 6.8 9.6 5.9-.1 14.1-2.1 15.3-5-.3-1.8-1.1-4.2-1.1-4.2s14.7 1.1 23.2 5.5 14.5 11.4 18.4 28.1c3.9 16.6 6.3 26.3.6 32.6-5.7 6.3-12.9 11.9-12.9 11.9l15.7 9.3-7.4 26H230.3Z" fill="#fff"/><path d="M242.5 128.1c-.9 3.6-3.1 6.7-6.3 8.6-6.4 3.8-14.5 2-18.7-4.1l23.9-14.4c1.5 3.1 2 6.6 1.1 9.9Z" fill="#FFC328"/><path d="M183.4 405.4h-68.9c.5-5.7 5.3-10.3 11.2-10.3h46.4c5.9 0 10.8 4.5 11.3 10.3Z" fill="#fff"/><path d="M371.7 285.3c-2.4-.6-4.8-.7-7.3-.4-3.1.4-6 1.6-8.4 3.3-2.9 2.1-5.1 5-6.4 8.4l-5 17.8-6.8 23.8h-107L219 296.6c-2.6-7.1-9.6-11.8-17.4-11.8-1.6 0-3.2.2-4.7.6-4.9 1.2-9 4.2-11.5 8.5-2.3 4-2.9 8.6-1.6 13l16.9 58.5c.6 1.9 1.4 3.8 2.6 5.4 3.6 5.2 9.6 8.4 16.1 8.6h8.9l-5.7 27.1h3.9l16.7-27.1h82l16.7 27.1h3.9l-5.7-27.1h8.3c6.8 0 13.1-3.2 16.8-8.6 1.2-1.7 2-3.5 2.6-5.4l16.9-58.5c.4-1.5.7-3.1.7-4.6 0-8-5.6-15-13.7-17Zm11.2 20.9L366 364.7c-.5 1.7-1.3 3.3-2.3 4.8-3.3 4.8-9 7.7-15.1 7.7H219.5c-5.6-.2-10.9-2.8-14.1-7.1-.2-.2-.3-.4-.4-.6-1-1.5-1.8-3.1-2.3-4.8l-16.9-58.5c-1.1-3.9-.6-7.9 1.4-11.4 2.2-3.8 5.8-6.5 10.2-7.6 1.4-.3 2.8-.5 4.2-.5 7 0 13.3 4.2 15.5 10.4l12 42.4c.1.4.5.7 1 .7h108.5c.4 0 .8-.3 1-.7l12-42.3c2-5.5 7-9.5 13.1-10.3 1.2-.2 2.4-.2 3.6-.1 1 .1 2 .2 2.9.5 7.2 1.8 12.2 7.9 12.2 14.9 0 1.3-.2 2.7-.5 4ZM204.9 163.1c-.1 0-.3 0-.4-.1-.5-.2-.7-.8-.5-1.3l7.4-17c.2-.5.8-.7 1.3-.5.5.2.7.8.5 1.3l-7.4 17c-.2.4-.5.6-.9.6ZM231.8 177.1c-.5 0-1-.4-1-1l-.8-27.2c0-.6.4-1 1-1 .5 0 1 .4 1 1l.8 27.2c0 .5-.4.9-1 1ZM256.3 159.3c-.3 0-.5-.1-.7-.3l-13-13.7c-.4-.4-.4-1 0-1.4.4-.4 1-.4 1.4 0l13 13.7c.4.4.4 1 0 1.4-.2.2-.4.3-.7.3ZM252.6 121c-.4 0-.8-.3-1-.7-.2-.5.1-1.1.7-1.3l20.7-6.5c.5-.2 1.1.1 1.3.7.2.6-.1 1.1-.7 1.3l-20.7 6.5h-.3Z" fill="#1423DC"/><path d="M367.1 286.1c-.6 0-1-.5-1-1 0-37.4-30.1-66.8-68.4-66.8H275c-38.4 0-68.4 29.3-68.4 66.8 0 .6-.5 1-1 1s-1-.5-1-1c0-38.6 31-68.8 70.5-68.8h22.6c39.5 0 70.5 30.2 70.5 68.8-.1.5-.5 1-1.1 1ZM245.2 339.3c-4.6-9.1-.7-17.1-.7-17.1 6.3-.8 60.2-17.8 73.6-20.1 16.3-2.9 25-.9 28.3 9.1l-4.1 15.1s-3.1-1.4-7.9 1c-4.8 2.4-5 12-21.9 12" fill="#1423DC"/><path d="M243.7 323.3 226 325c-1.8-5.4-7.1-25-7.1-25s12.9-9.8 27.1-6.5c8.3 1.9 20.2 8.2 20.2 8.2l8.4-.3 10.9 5.6M332.9 302.5c-.3 0-.6-.1-.8-.4-.3-.4-.3-1.1.2-1.4 13.1-10.3 13.1-13.1 13.1-19.4 0-4.7-4.5-36.7-15.5-45.4-9.5-7.5-27.9-9-28.1-9-.6 0-1-.5-.9-1.1 0-.6.5-1 1.1-.9.8.1 19.1 1.5 29.2 9.4 12.3 9.8 16.2 44.1 16.2 47 0 7.2-.5 10.5-13.8 21-.3.1-.5.2-.7.2Z" fill="#1423DC"/><path d="M243.1 294.5c-.4 0-.8-.2-.9-.6-.2-.4-4.1-9.6-4.3-15.7-.4-13.7 6.5-37.4 14.8-44.5 13-11.1 29.9-9.4 30.6-9.4.5.1.9.6.9 1.1 0 .5-.5.9-1.1.9-.2 0-16.7-1.6-29.1 8.9-6.6 5.6-14.5 27-14.1 42.9.2 5.7 4.1 14.9 4.1 14.9.2.5 0 1.1-.5 1.3-.2.2-.3.2-.4.2Z" fill="#1423DC"/><path d="M326.5 279.7c-.3-.4-1-.5-1.4-.2l-2.3 1.8-2.6-21.8c-.1-.5-.5-.9-1-.9h-56.7v-3.3c0-.6-.5-1-1-1-.6 0-1 .4-1 1v3.3H252c-.3 0-.6.1-.8.3-.2.2-.3.5-.2.8l4.3 35.4v.2l.7 5.5c.1.5.5.9 1 .9h67.2c.3 0 .6-.1.8-.3.2-.2.3-.5.2-.8l-2.1-17 3.3-2.5c.4-.4.5-1 .1-1.4Zm-68.7 20-.4-3.6h60c.6 0 1-.4 1-1s-.4-1-1-1h-60.3l-4.1-33.5h65.2l2.7 22.1.3 2.3 1.8 14.7h-65.2Z" fill="#1423DC"/><path d="M323 299.7h-65.2l-.4-3.6h60c.6 0 1-.4 1-1s-.4-1-1-1h-60.3l-4.1-33.5h65.2l2.7 22.1.3 2.3 1.8 14.7Z" fill="#96CD32"/><path d="m255.5 133.2-.9 1.8c10.8 5.6 21.9 10.5 33.5 14.4l.6-1.9c-11.4-3.9-22.5-8.8-33.2-14.3Z" fill="#4BC3C3"/><path d="m288.7 147.4-.6 1.9c2.7.9 5.5 1.8 8.2 2.5l.6-2c-2.8-.6-5.5-1.5-8.2-2.4Z" fill="#41A57D"/><path d="m296.9 150-.6 2c8.2 2.3 16.5 4.2 24.9 5.5l.3-2c-8.3-1.4-16.6-3.2-24.6-5.5Z" fill="#96CD32"/><path d="m401.4 131.7 2-.6c-.8-2.9-2.2-5.7-4.1-8.1-1.9-2.4-4.4-4.4-7.1-5.7l-.9 1.8c2.5 1.2 4.7 3 6.4 5.2 1.7 2.1 3 4.7 3.7 7.4Z" fill="#41A57D"/><path d="m393 150 1.1 1.7c2.5-1.5 4.9-3.4 6.7-5.8l-1.6-1.2c-1.7 2.1-3.9 3.8-6.2 5.3Z" fill="#1423DC"/><path d="m399.1 144.6 1.6 1.2c1.6-2 2.7-4.5 3.2-7.1.5-2.6.2-5.2-.5-7.7l-2 .6c1.4 4.5.6 9.4-2.3 13Z" fill="#FFC328"/><path d="m371.1 156.8.3 2c3.9-.5 7.8-1.3 11.6-2.4 3.8-1.1 7.6-2.6 11-4.7l-1-1.7c-3.2 2-6.8 3.4-10.5 4.5-3.8 1-7.6 1.8-11.4 2.3Z" fill="#2382D2"/><path d="m391.3 119 .9-1.8c-5-2.5-10.6-3.1-16-2.7-5.4.4-10.7 1.8-15.7 3.6l.7 1.9c4.9-1.8 10-3.1 15.2-3.5 5-.3 10.3.3 14.9 2.5Z" fill="#4BC3C3"/><path d="m361.1 120.1-.7-1.9c-5.8 2.1-11.4 4.8-16.7 7.9l1 1.8c5.3-3.1 10.7-5.8 16.4-7.8Z" fill="#1423DC"/><path d="m344.7 127.8-1-1.8c-4.2 2.5-8.4 5.2-12.4 8l1.2 1.7c3.9-2.8 8-5.4 12.2-7.9Z" fill="#96CD32"/><path d="m321.5 155.4-.3 2c8.3 1.3 16.6 2.1 25 2.4 8.4.3 16.8.1 25.2-1l-.3-2c-8.2 1.1-16.5 1.3-24.8 1-8.3-.4-16.6-1.2-24.8-2.4Z" fill="#1423DC"/><path d="m332.5 135.8-1.2-1.7c-4.9 3.6-9.8 7.3-14.4 11.2-2.3 1.9-4.6 4-6.9 6-2.2 2.1-4.5 4.1-6.6 6.3l1.4 1.5c2.1-2.1 4.4-4.1 6.6-6.2 2.3-2 4.5-4 6.8-6 4.6-3.9 9.4-7.6 14.3-11.1Z" fill="#4BC3C3"/><path d="m304.9 159.1-1.5-1.5-6.1 6 1.4 1.4 6.2-5.9Z" fill="#41A57D"/><path d="m298.7 165-1.4-1.5-4.6 4.4c-1.5 1.4-3 3-4.6 4.3-3.2 2.8-6.3 5.6-9.5 8.4l1.3 1.6 9.6-8.4c1.6-1.4 3.1-2.9 4.6-4.4l4.6-4.4Z" fill="#96CD32"/><path d="m196.7 231.2-.7-1.9-8.3 2.7c-1.4.5-2.8.8-4.2 1.2l-4.2 1.1.5 2 4.3-1.2c1.4-.4 2.9-.7 4.2-1.2l8.4-2.7Z" fill="#41A57D"/><path d="m218.2 222.3-.8-1.8-7.8 3.5.8 1.8 7.8-3.5Z" fill="#1423DC"/><path d="m210.4 225.8-.8-1.9c-1.1.5-2.2 1-3.3 1.4l-3.4 1.3c-2.3.9-4.5 1.8-6.8 2.6l.7 1.9c2.3-.8 4.6-1.7 6.9-2.6l3.4-1.3c1-.3 2.2-.9 3.3-1.4Z" fill="#FFC328"/><path d="m239 211.3-1-1.8-10.2 5.7c-3.5 1.8-7 3.5-10.4 5.2l.9 1.8c3.5-1.8 7-3.5 10.5-5.3l10.2-5.6Z" fill="#2382D2"/><path d="m179.8 236.4-.5-2c-10.2 2.6-20.6 4.4-31.1 5.2l.1 2c10.7-.7 21.2-2.6 31.5-5.2Z" fill="#4BC3C3"/><path d="m148.3 241.6-.1-2-9.1.3c-3 0-6-.2-9-.7l-.3 2c3.1.5 6.2.7 9.3.7l9.2-.3Z" fill="#4BC3C3"/><path d="m129.8 241.1.3-2c-4.7-.8-9.4-2.2-13.6-4.4l-.9 1.8c4.4 2.4 9.3 3.8 14.2 4.6Z" fill="#96CD32"/><path d="m279.9 182.2-1.3-1.6c-12.7 10.7-26.3 20.5-40.6 28.9l1 1.8c14.5-8.5 28.1-18.3 40.9-29.1Z" fill="#1423DC"/><path d="m115.5 236.6.9-1.8c-2.6-1.3-5.1-3-7.1-5.1-2.1-2-3.7-4.5-4.7-7.1-.9-2.7-1-5.6-.3-8.3.4-1.4.9-2.7 1.6-3.9.7-1.3 1.5-2.4 2.5-3.5l-1.5-1.3c-1 1.2-1.9 2.5-2.7 3.9-.8 1.4-1.4 2.9-1.8 4.4-.9 3.1-.7 6.5.3 9.5 1.1 3 2.9 5.7 5.2 7.9 2.3 2.1 4.9 3.9 7.6 5.3Z" fill="#4BC3C3"/><path d="m107 205.4 1.5 1.3c1.8-2.1 4-3.7 6.4-5l-.9-1.7c-2.6 1.3-5.1 3.1-7 5.4Z" fill="#41A57D"/><path d="m114 200 .9 1.8c3.6-1.9 7.7-2.8 11.8-3.1 4.1-.3 8.3 0 12.4.7l.3-2c-4.2-.7-8.6-1-12.9-.7-4.2.3-8.6 1.2-12.5 3.3Z" fill="#96CD32"/><path d="m218.8 250.8-1.3 1.5c2.2 1.9 4.4 3.8 6.8 5.6 1.2.9 2.3 1.8 3.5 2.7l3.6 2.6 1.2-1.7-3.5-2.5c-1.2-.9-2.3-1.8-3.4-2.7-2.5-1.7-4.7-3.6-6.9-5.5Z" fill="#41A57D"/><path d="m201.9 235-1.4 1.4c2.1 2 4.1 4 6.2 6l1.4-1.5c-2.2-1.9-4.2-3.9-6.2-5.9Z" fill="#1423DC"/><path d="m208 240.9-1.4 1.5c3.5 3.4 7.1 6.7 10.9 9.9l1.3-1.5c-3.7-3.2-7.2-6.5-10.8-9.9Z" fill="#FFC328"/><path d="m184.7 218.9-1.3 1.6c3 2.4 6 5 8.7 7.7 2.8 2.7 5.5 5.5 8.3 8.2l1.4-1.4c-2.8-2.7-5.5-5.5-8.4-8.2-2.7-2.8-5.7-5.4-8.7-7.9Z" fill="#2382D2"/><path d="m232.5 261.6-1.2 1.7c8.7 6.2 18.3 11.2 28.5 14.5l.6-1.9c-10-3.2-19.4-8.2-27.9-14.3Z" fill="#4BC3C3"/><path d="m260.4 275.8-.6 1.9c2.9 1 5.9 1.7 8.9 2.4l1.1.3 1.1.2 2.3.4c1.5.2 3 .6 4.6.7l.2-2c-1.5-.1-3-.5-4.5-.7l-2.2-.4-1.1-.2-1.1-.3c-2.8-.7-5.8-1.3-8.7-2.3Z" fill="#1423DC"/><path d="m278.1 279.7-.2 2c2.5.2 4.9.5 7.4.7l7.4.2v-2l-7.3-.2c-2.4-.2-4.8-.5-7.3-.7Z" fill="#96CD32"/><path d="m139.5 197.4-.3 2c8.1 1.4 15.9 4.2 23.4 7.9 3.7 1.8 7.3 3.9 10.8 6.1 3.5 2.2 6.9 4.6 10.1 7.2l1.3-1.6c-3.3-2.6-6.7-5.1-10.3-7.3-3.5-2.3-7.2-4.4-11-6.2-7.6-3.8-15.6-6.7-24-8.1Z" fill="#1423DC"/><path d="M289.5 188.7c-11.9 1.4-20.9-3.3-21-3.4-.1 0-.1-.1-.2-.1-.1-.7-.1-1.4-.1-2.2.1-1.6.7-3.1 1.6-4.4-.1 2.5.5 5.9 4 7.2 3.6 1.3 10.4 2.4 15.7 2.9ZM307.9 198.7c-.1 0-.2-.2-.4-.2 0 0 0-.1.1-.1l.3.3Z" fill="#fff"/><path d="M309 203.9c0 1.6-.8 3.2-2.2 4.1-1.8 1.2-4.4 1.3-7.2.1-.5-.2-1.1 0-1.3.6-.2.5.1 1.1.6 1.3.2.1.4.1.5.2l1.6 19.6c-5.4 4.5-12.1 5.2-16.1 3.6-1.5-.7-3.4-2-3.5-4.5v-5.6c.8.2 1.8.3 2.7.3 2.1 0 4.6-.4 7.4-1.5.5-.2.8-.8.6-1.3-.2-.5-.8-.8-1.3-.6-6.3 2.4-10.3 1.2-12.6-.2-3-1.9-4.2-5-4.3-7-.2-3.2 0-11.6.1-17.7.4-.5 1.6-1.7 3.1-1.2.5.2 1.1-.1 1.2-.7.2-.5-.1-1.1-.7-1.3-1.5-.5-2.7-.1-3.7.5 0-1.2.1-2.2.1-2.9 5.1 1.4 12.9 2.4 21.6 0-.1 2.1-.1 6.1 1.5 11 .1.4.5.7.9.7s.8-.2 1-.6c.1-.1 1.5-3.2 5.1-3.2 4.3-.2 4.9 3.9 4.9 6.3Z" fill="#fff"/><path d="M288.9 197.8c-.4-.1-.7.1-.8 1.7-.1 1.7.4 2 .7 2 .4 0 .8-.6.7-1.8 0-1.2 0-1.8-.6-1.9ZM276.4 197.7c-.4-.1-.7.1-.9 1.7-.2 1.7.3 2 .7 2 .4 0 .8-.5.8-1.8 0-1.2 0-1.8-.6-1.9ZM307.9 198.7c-.1 0-.2-.2-.4-.2 0 0 0-.1.1-.1l.3.3Z" fill="#1423DC"/><path d="M307.6 198.4c-.1 0-.1.1 0 0 .1.1.2.3.3.3l-.3-.3Z" fill="#1423DC"/><path d="M310.3 179.8c-1.1-1.4-2.6-2.5-4.3-3.2-.9-.3-1.8-.5-3-.7-.2 0-.4 0-.8.1-3.8-4-7.8-6.2-12-6.2-3.5 0-6.2 1.6-7.4 2.8-3.9-1-8.2-.3-11.5 1.8-3.1 2-5 5-5.2 8.4-.2 4.8 1.6 8.5 5.8 11.2v.8c-.1 6.1-.3 14.7-.1 18 .2 3.3 2.2 6.7 5.2 8.6.6.4 1.4.8 2.2 1.1v6.2c.2 2.8 1.8 5.1 4.8 6.3 1.5.6 3.2 1 5.2 1 4.2 0 9.2-1.5 13.3-5.2.2-.2.4-.5.3-.8l-1.5-19.3c.7.1 1.4.2 2.1.2 1.7 0 3.2-.4 4.4-1.3 1.9-1.3 3.1-3.5 3.1-5.8 0-2.9-.8-5.2-2.2-6.6 2.8-4.6 5.8-12 1.6-17.4Zm-2.7 18.6.3.3c-.1 0-.3-.2-.3-.3-.1 0-.1.1 0 0Zm-39.3-13.2c-.1-.7-.1-1.4-.1-2.2.1-1.6.7-3.1 1.6-4.4-.1 2.5.5 5.9 4 7.2 3.6 1.4 10.4 2.5 15.6 3-11.9 1.4-20.9-3.3-21-3.4 0-.1 0-.2-.1-.2Zm40.7 18.7c0 1.6-.8 3.2-2.2 4.1-1.8 1.2-4.4 1.3-7.2.1-.5-.2-1.1 0-1.3.6-.2.5.1 1.1.6 1.3.2.1.4.1.5.2l1.6 19.6c-5.4 4.5-12.1 5.2-16.1 3.6-1.5-.7-3.4-2-3.5-4.5v-5.6c.8.2 1.8.3 2.7.3 2.1 0 4.6-.4 7.4-1.5.5-.2.8-.8.6-1.3-.2-.5-.8-.8-1.3-.6-6.3 2.4-10.3 1.2-12.6-.2-3-1.9-4.2-5-4.3-7-.2-3.2 0-11.6.1-17.7.4-.5 1.6-1.7 3.1-1.2.5.2 1.1-.1 1.2-.7.2-.5-.1-1.1-.7-1.3-1.5-.5-2.7-.1-3.7.5 0-1.2.1-2.2.1-2.9 5.1 1.4 12.9 2.4 21.6 0-.1 2.1-.1 6.1 1.5 11 .1.4.5.7.9.7s.8-.2 1-.6c.1-.1 1.5-3.2 5.1-3.2 4.3-.2 4.9 3.9 4.9 6.3Z" fill="#1423DC"/><path d="M282.9 209.9c-3.4 0-3.8-1-3.9-1.4-.1-.3-.4-1.1 2.1-13 .1-.5.6-.9 1.2-.8.5.1.9.6.8 1.2-1 4.9-2.1 10.3-2.2 11.8.5.2 1.8.2 2.9.2.5 0 1 .4 1.1.9 0 .6-.4 1-.9 1.1h-1.1ZM304.7 206.9c-.1 0-.3 0-.4-.1l-3.4-1.7c-.2-.1-.4-.3-.5-.6-.1-.3 0-.6.1-.8l2.3-3.9c.3-.5.9-.6 1.4-.3.5.3.6.9.3 1.4l-1.8 2.9 2.4 1.2c.5.2.7.8.5 1.3-.1.4-.5.6-.9.6ZM286.1 216.1c-1.7 0-3.1-1.2-3.5-1.6-.4-.4-.4-1 0-1.4.4-.4 1-.4 1.4 0 .6.6 1.6 1.2 2.5 1 1-.3 1.9-1.7 2.6-3.9.1-.5.7-.8 1.2-.7.5.1.8.7.7 1.2-.8 3.1-2.2 4.9-4 5.4h-.9ZM291.8 196.4c-.3 0-.7-.2-.8-.5-1.5-2.4-4-1.7-4.3-1.6-.5.2-1.1-.1-1.3-.6-.2-.5.1-1.1.6-1.3 1.5-.5 4.8-.7 6.7 2.4.3.5.2 1.1-.3 1.4-.2.1-.4.2-.6.2ZM272 194.5v.4c-.1-.1-.1-.2 0-.4ZM405.1 407.4H94.2c-.6 0-1-.4-1-1s.4-1 1-1h310.9c.6 0 1 .4 1 1s-.4 1-1 1Z" fill="#1423DC"/></svg>