<svg aria-hidden="true" width="67" height="67" fill="none" xmlns="http://www.w3.org/2000/svg"><path d="M50.148 27.244c0-9-7.39-16.346-16.445-16.346s-16.446 7.346-16.446 16.346c-5.035 0-9.136 4.077-9.136 9.081 0 5.005 4.101 9.082 9.136 9.082h.447l4.101 5.449a4.626 4.626 0 0 0 3.655 1.816h2.842c.406 2.058 2.274 3.632 4.467 3.632h1.827c2.518 0 4.548-2.018 4.548-4.52 0-2.503-2.03-4.52-4.548-4.52H32.77c-2.193 0-4.06 1.573-4.467 3.632H25.46a2.775 2.775 0 0 1-2.193-1.09l-3.289-4.359h1.827a.899.899 0 0 0 .894-.888V29.06c4.182-.04 7.593-.04 10.963-2.542v3.47c0 .283.122.566.366.727a.962.962 0 0 0 .812.121c.243-.08 5.806-1.977 9.623-7.628l-1.461-1.01c-2.437 3.593-5.726 5.57-7.472 6.378V24.54a.912.912 0 0 0-.568-.848c-.325-.161-.731-.08-1.015.202-3.168 3.148-6.173 3.31-11.248 3.35h-3.655c0-8.032 6.578-14.53 14.618-14.53s14.619 6.498 14.619 14.53v12.714h1.827V29.06c4.02 0 7.309 3.27 7.309 7.265 0 3.996-3.29 7.265-7.31 7.265h-3.654V28.172h-1.827V44.52c0 .484.406.888.893.888h4.548c5.035 0 9.136-4.077 9.136-9.082 0-5.004-4.02-9.08-9.055-9.08ZM32.77 49.04h1.827c1.503 0 2.762 1.211 2.762 2.745s-1.219 2.744-2.762 2.744H32.77c-1.502 0-2.761-1.21-2.761-2.744 0-1.534 1.259-2.745 2.761-2.745ZM20.912 29.06v14.53h-3.654c-4.02 0-7.31-3.269-7.31-7.265 0-3.995 3.29-7.265 7.31-7.265v10.898h1.827V29.06h1.827Z" fill="#1423DC"/></svg>