<svg aria-hidden="true" width="67" height="67" fill="none" xmlns="http://www.w3.org/2000/svg"><path d="m48.646 39.595-6.01-1.373c2.274-2.583 3.655-6.215 3.655-10.373h2.761a.899.899 0 0 0 .893-.887v-3.633a2.756 2.756 0 0 0-2.76-2.745h-.894c0-6.417-5.279-10.897-12.791-10.897-7.512 0-12.791 4.48-12.791 10.897h-.893c-1.503 0-2.762 1.211-2.762 2.745v3.633c0 .484.407.887.894.887h2.761c0 4.158 1.38 7.79 3.654 10.373l-6.01 1.373c-2.923.686-4.953 3.229-4.953 6.175v11.1h1.827v-11.1a4.545 4.545 0 0 1 3.533-4.44l2.152-.484 1.015 5.085 1.787-.363-1.015-5.126 2.801-.646 4.102 17.073h1.868l-3.858-16.023a12.02 12.02 0 0 0 5.847 1.534c2.152 0 4.142-.566 5.848-1.534L35.449 56.91h1.868l4.101-17.073 2.802.645-1.056 5.167 1.787.363 1.096-5.166 2.152.484a4.545 4.545 0 0 1 3.533 4.44v11.1h1.827v-11.1c.04-2.947-1.99-5.49-4.913-6.175ZM35.327 11.584v8.96h-3.654v-8.96a13.88 13.88 0 0 1 1.827-.121c.609 0 1.218.08 1.827.12Zm-12.79 16.225h3.654v-1.816h-7.31v-2.745c0-.484.407-.888.894-.888h2.761v-1.816c0-4.803 3.37-7.588 7.31-8.597v8.597H26.19v1.816h14.618v-1.816h-3.655v-8.597c3.94 1.05 7.31 3.834 7.31 8.597v1.816h2.76c.488 0 .894.404.894.888v2.745H29.845v1.816h14.619c0 7.265-4.71 12.714-10.964 12.714-6.253 0-10.964-5.449-10.964-12.714Zm2.03 21.836 1.461 7.265h-1.867l-1.381-6.902 1.787-.363Zm17.866 0 1.787.363-1.38 6.902H40.97l1.462-7.265Z" fill="#1423DC"/></svg>